<svg xmlns="http://www.w3.org/2000/svg" xmlns:xlink="http://www.w3.org/1999/xlink" width="500" zoomAndPan="magnify" viewBox="0 0 375 374.999991" height="500" preserveAspectRatio="xMidYMid meet" version="1.2"><defs/><g id="eb5e8e0f5f"><g style="fill:#ffffff;fill-opacity:1;"><g transform="translate(28.650001, 204.823057)"><path style="stroke:none" d="M 6.125 0 L 6.125 -51.046875 L 17.71875 -51.046875 L 17.71875 0 Z M 6.125 0 "/></g></g><g style="fill:#ffffff;fill-opacity:1;"><g transform="translate(52.491861, 204.823057)"><path style="stroke:none" d="M 6.125 0 L 6.125 -51.046875 L 15.96875 -51.046875 L 38.5 -19.984375 L 38.5 -51.046875 L 50.03125 -51.046875 L 50.03125 0 L 40.1875 0 L 17.640625 -31.28125 L 17.640625 0 Z M 6.125 0 "/></g></g><g style="fill:#ffffff;fill-opacity:1;"><g transform="translate(108.633223, 204.823057)"><path style="stroke:none" d="M 6.125 0 L 6.125 -51.046875 L 38.140625 -51.046875 L 38.140625 -40.546875 L 17.71875 -40.546875 L 17.71875 -27.78125 L 36.25 -27.78125 L 36.25 -17.578125 L 17.71875 -17.578125 L 17.71875 0 Z M 6.125 0 "/></g></g><g style="fill:#ffffff;fill-opacity:1;"><g transform="translate(149.973673, 204.823057)"><path style="stroke:none" d="M 6.125 0 L 6.125 -51.046875 L 17.71875 -51.046875 L 17.71875 0 Z M 6.125 0 "/></g></g><g style="fill:#ffffff;fill-opacity:1;"><g transform="translate(173.815533, 204.823057)"><path style="stroke:none" d="M 6.125 0 L 6.125 -51.046875 L 15.96875 -51.046875 L 38.5 -19.984375 L 38.5 -51.046875 L 50.03125 -51.046875 L 50.03125 0 L 40.1875 0 L 17.640625 -31.28125 L 17.640625 0 Z M 6.125 0 "/></g></g><g style="fill:#ffffff;fill-opacity:1;"><g transform="translate(229.956895, 204.823057)"><path style="stroke:none" d="M 6.125 0 L 6.125 -51.046875 L 17.71875 -51.046875 L 17.71875 0 Z M 6.125 0 "/></g></g><g style="fill:#ffffff;fill-opacity:1;"><g transform="translate(253.798754, 204.823057)"><path style="stroke:none" d="M 18.375 0 L 18.375 -40.1875 L 2.1875 -40.1875 L 2.1875 -51.046875 L 46.15625 -51.046875 L 46.15625 -40.1875 L 29.96875 -40.1875 L 29.96875 0 Z M 18.375 0 "/></g></g><g style="fill:#ffffff;fill-opacity:1;"><g transform="translate(302.138658, 204.823057)"><path style="stroke:none" d="M 6.125 0 L 6.125 -51.046875 L 39.671875 -51.046875 L 39.671875 -41.28125 L 17.640625 -41.28125 L 17.640625 -30.703125 L 37.703125 -30.703125 L 37.703125 -21 L 17.640625 -21 L 17.640625 -9.84375 L 40.46875 -9.84375 L 40.46875 0 Z M 6.125 0 "/></g></g><g style="fill:#ffffff;fill-opacity:1;"><g transform="translate(116.167236, 229.927578)"><path style="stroke:none" d="M 1.484375 -4.390625 L 1.484375 -6.96875 L 8.8125 -6.96875 L 8.8125 -4.390625 Z M 1.484375 -4.390625 "/></g></g><g style="fill:#ffffff;fill-opacity:1;"><g transform="translate(126.871683, 229.927578)"><path style="stroke:none" d=""/></g></g><g style="fill:#ffffff;fill-opacity:1;"><g transform="translate(132.550666, 229.927578)"><path style="stroke:none" d="M 6.265625 0 L 0.203125 -15.765625 L 4.0625 -15.765625 L 6.15625 -10.15625 L 8.046875 -5.15625 L 12.015625 -15.765625 L 15.84375 -15.765625 L 9.78125 0 Z M 6.265625 0 "/></g></g><g style="fill:#ffffff;fill-opacity:1;"><g transform="translate(148.979186, 229.927578)"><path style="stroke:none" d="M 1.890625 0 L 1.890625 -15.765625 L 12.25 -15.765625 L 12.25 -12.75 L 5.453125 -12.75 L 5.453125 -9.484375 L 11.65625 -9.484375 L 11.65625 -6.484375 L 5.453125 -6.484375 L 5.453125 -3.046875 L 12.5 -3.046875 L 12.5 0 Z M 1.890625 0 "/></g></g><g style="fill:#ffffff;fill-opacity:1;"><g transform="translate(163.018906, 229.927578)"><path style="stroke:none" d="M 1.890625 0 L 1.890625 -15.765625 L 4.9375 -15.765625 L 11.890625 -6.171875 L 11.890625 -15.765625 L 15.453125 -15.765625 L 15.453125 0 L 12.421875 0 L 5.453125 -9.671875 L 5.453125 0 Z M 1.890625 0 "/></g></g><g style="fill:#ffffff;fill-opacity:1;"><g transform="translate(180.754485, 229.927578)"><path style="stroke:none" d="M 1.890625 0 L 1.890625 -15.765625 L 8.140625 -15.765625 C 9.804688 -15.765625 11.257812 -15.4375 12.5 -14.78125 C 13.75 -14.125 14.71875 -13.203125 15.40625 -12.015625 C 16.101562 -10.828125 16.453125 -9.453125 16.453125 -7.890625 C 16.453125 -6.304688 16.101562 -4.925781 15.40625 -3.75 C 14.71875 -2.570312 13.75 -1.648438 12.5 -0.984375 C 11.257812 -0.328125 9.804688 0 8.140625 0 Z M 5.46875 -3.296875 L 8.0625 -3.296875 C 9 -3.296875 9.816406 -3.484375 10.515625 -3.859375 C 11.222656 -4.242188 11.773438 -4.78125 12.171875 -5.46875 C 12.578125 -6.164062 12.78125 -6.972656 12.78125 -7.890625 C 12.78125 -8.816406 12.578125 -9.617188 12.171875 -10.296875 C 11.773438 -10.984375 11.21875 -11.519531 10.5 -11.90625 C 9.789062 -12.289062 8.960938 -12.484375 8.015625 -12.484375 L 5.46875 -12.484375 Z M 5.46875 -3.296875 "/></g></g><g style="fill:#ffffff;fill-opacity:1;"><g transform="translate(198.535133, 229.927578)"><path style="stroke:none" d="M 1.890625 0 L 1.890625 -15.765625 L 5.46875 -15.765625 L 5.46875 0 Z M 1.890625 0 "/></g></g><g style="fill:#ffffff;fill-opacity:1;"><g transform="translate(206.287397, 229.927578)"><path style="stroke:none" d="M 1.890625 0 L 1.890625 -15.765625 L 4.9375 -15.765625 L 11.890625 -6.171875 L 11.890625 -15.765625 L 15.453125 -15.765625 L 15.453125 0 L 12.421875 0 L 5.453125 -9.671875 L 5.453125 0 Z M 1.890625 0 "/></g></g><g style="fill:#ffffff;fill-opacity:1;"><g transform="translate(224.022976, 229.927578)"><path style="stroke:none" d="M 9.234375 0.3125 C 7.628906 0.3125 6.203125 -0.0351562 4.953125 -0.734375 C 3.710938 -1.429688 2.738281 -2.394531 2.03125 -3.625 C 1.320312 -4.851562 0.96875 -6.273438 0.96875 -7.890625 C 0.96875 -9.492188 1.316406 -10.910156 2.015625 -12.140625 C 2.710938 -13.367188 3.679688 -14.332031 4.921875 -15.03125 C 6.160156 -15.738281 7.578125 -16.09375 9.171875 -16.09375 C 10.441406 -16.09375 11.617188 -15.863281 12.703125 -15.40625 C 13.785156 -14.957031 14.707031 -14.320312 15.46875 -13.5 C 16.226562 -12.6875 16.765625 -11.722656 17.078125 -10.609375 L 13.21875 -10.609375 C 12.84375 -11.304688 12.304688 -11.84375 11.609375 -12.21875 C 10.910156 -12.601562 10.117188 -12.796875 9.234375 -12.796875 C 8.316406 -12.796875 7.503906 -12.582031 6.796875 -12.15625 C 6.097656 -11.738281 5.546875 -11.160156 5.140625 -10.421875 C 4.742188 -9.691406 4.546875 -8.847656 4.546875 -7.890625 C 4.546875 -6.941406 4.738281 -6.097656 5.125 -5.359375 C 5.519531 -4.628906 6.070312 -4.046875 6.78125 -3.609375 C 7.488281 -3.179688 8.320312 -2.96875 9.28125 -2.96875 C 10.4375 -2.96875 11.394531 -3.257812 12.15625 -3.84375 C 12.925781 -4.4375 13.425781 -5.210938 13.65625 -6.171875 L 8.546875 -6.171875 L 8.546875 -8.9375 L 17.4375 -8.9375 C 17.53125 -7.59375 17.398438 -6.351562 17.046875 -5.21875 C 16.691406 -4.09375 16.148438 -3.113281 15.421875 -2.28125 C 14.691406 -1.445312 13.804688 -0.804688 12.765625 -0.359375 C 11.722656 0.0859375 10.546875 0.3125 9.234375 0.3125 Z M 9.234375 0.3125 "/></g></g><g style="fill:#ffffff;fill-opacity:1;"><g transform="translate(242.795206, 229.927578)"><path style="stroke:none" d=""/></g></g><g style="fill:#ffffff;fill-opacity:1;"><g transform="translate(248.47419, 229.927578)"><path style="stroke:none" d="M 1.484375 -4.390625 L 1.484375 -6.96875 L 8.8125 -6.96875 L 8.8125 -4.390625 Z M 1.484375 -4.390625 "/></g></g></g></svg>