<svg xmlns="http://www.w3.org/2000/svg" xmlns:xlink="http://www.w3.org/1999/xlink" width="500" zoomAndPan="magnify" viewBox="0 0 375 374.999991" height="500" preserveAspectRatio="xMidYMid meet" version="1.2"><defs><clipPath id="a1c5e12819"><path d="M 23.324219 115.675781 L 202 115.675781 L 202 259.675781 L 23.324219 259.675781 Z M 23.324219 115.675781 "/></clipPath><clipPath id="50982bb4a1"><path d="M 50 123 L 351.824219 123 L 351.824219 241 L 50 241 Z M 50 123 "/></clipPath></defs><g id="24fff68b6d"><g clip-rule="nonzero" clip-path="url(#a1c5e12819)"><path style=" stroke:none;fill-rule:nonzero;fill:#31abe1;fill-opacity:1;" d="M 196.839844 207.476562 C 189.859375 202.238281 183.003906 196.714844 176.300781 191.257812 C 171.296875 195.082031 166.28125 198.824219 161.222656 202.414062 C 154.351562 207.269531 147.417969 211.855469 140.410156 215.882812 C 136.910156 217.902344 133.386719 219.773438 129.863281 221.464844 C 126.34375 223.171875 122.8125 224.695312 119.292969 225.984375 C 112.269531 228.546875 105.285156 230.203125 98.628906 230.558594 C 95.296875 230.722656 92 230.597656 88.746094 230.167969 C 85.496094 229.738281 82.308594 228.96875 79.222656 227.945312 C 73.050781 225.875 67.3125 222.640625 62.390625 218.539062 C 57.445312 214.457031 53.300781 209.523438 50.164062 204.136719 C 48.597656 201.445312 47.289062 198.636719 46.226562 195.765625 C 45.691406 194.328125 45.246094 192.875 44.792969 191.421875 C 44.605469 190.683594 44.414062 189.953125 44.226562 189.222656 C 44.035156 188.488281 43.917969 187.746094 43.753906 187.011719 C 43.578125 186.246094 43.492188 185.589844 43.378906 184.917969 L 43.210938 183.910156 L 43.167969 183.648438 L 43.136719 183.320312 L 43.078125 182.667969 L 42.960938 181.359375 L 42.902344 180.707031 L 42.875 180.382812 C 42.875 180.820312 42.871094 180.421875 42.871094 180.484375 L 42.863281 180.347656 C 42.828125 179.605469 42.789062 178.867188 42.753906 178.132812 C 42.699219 175.191406 42.777344 172.28125 43.09375 169.433594 C 43.449219 166.59375 44 163.824219 44.714844 161.140625 C 45.476562 158.480469 46.363281 155.890625 47.398438 153.414062 C 49.539062 148.503906 52.238281 144.054688 55.257812 140.1875 C 58.261719 136.296875 61.613281 133.019531 64.980469 130.265625 C 68.363281 127.519531 71.789062 125.324219 75.039062 123.566406 C 81.570312 120.085938 87.359375 118.359375 91.34375 117.4375 C 92.351562 117.222656 93.234375 117.03125 94.003906 116.867188 C 94.777344 116.710938 95.445312 116.621094 95.972656 116.527344 C 97.035156 116.351562 97.582031 116.261719 97.582031 116.261719 C 97.582031 116.261719 97.03125 116.199219 95.960938 116.078125 C 95.425781 116.019531 94.765625 115.925781 93.96875 115.863281 C 93.171875 115.808594 92.242188 115.757812 91.179688 115.710938 C 90.125 115.683594 88.949219 115.703125 87.636719 115.699219 C 86.988281 115.730469 86.304688 115.769531 85.59375 115.808594 C 84.878906 115.847656 84.136719 115.886719 83.367188 115.988281 C 80.277344 116.25 76.734375 116.890625 72.828125 117.96875 C 68.914062 119.042969 64.652344 120.640625 60.234375 122.953125 C 58.019531 124.085938 55.785156 125.429688 53.53125 126.945312 C 51.316406 128.507812 49.042969 130.207031 46.863281 132.167969 C 44.648438 134.09375 42.503906 136.265625 40.445312 138.644531 C 38.382812 141.03125 36.453125 143.65625 34.601562 146.464844 C 32.8125 149.304688 31.105469 152.335938 29.652344 155.59375 C 28.226562 158.859375 26.980469 162.316406 25.96875 165.941406 C 25.007812 169.574219 24.257812 173.371094 23.859375 177.292969 C 23.777344 178.277344 23.699219 179.265625 23.617188 180.253906 C 23.578125 181.21875 23.542969 182.191406 23.503906 183.160156 L 23.476562 183.820312 L 23.464844 184.148438 L 23.46875 184.546875 L 23.5 186.171875 C 23.523438 187.257812 23.542969 188.375 23.628906 189.371094 C 24.0625 197.625 26.140625 206.132812 29.71875 214.304688 C 31.519531 218.390625 33.695312 222.398438 36.292969 226.210938 C 38.902344 230.011719 41.894531 233.636719 45.246094 237.003906 C 51.964844 243.714844 60.15625 249.367188 69.390625 253.265625 C 78.605469 257.171875 88.855469 259.296875 99.199219 259.3125 L 99.996094 259.320312 C 100.261719 259.324219 100.5 259.328125 100.882812 259.3125 L 102.980469 259.242188 L 104.03125 259.199219 L 104.984375 259.128906 L 106.902344 258.988281 C 109.445312 258.757812 111.972656 258.417969 114.457031 257.976562 C 119.429688 257.097656 124.28125 255.875 128.972656 254.359375 C 133.660156 252.839844 138.195312 251.0625 142.605469 249.117188 C 147.007812 247.15625 151.273438 245.011719 155.433594 242.753906 C 159.597656 240.503906 163.628906 238.089844 167.574219 235.613281 C 171.519531 233.128906 175.378906 230.570312 179.140625 227.933594 C 186.941406 222.503906 194.40625 216.8125 201.640625 211.0625 C 200.117188 209.9375 198.5625 208.769531 196.839844 207.476562 "/></g><path style=" stroke:none;fill-rule:nonzero;fill:#31abe1;fill-opacity:1;" d="M 344.519531 169.765625 C 344.195312 167.84375 343.753906 165.914062 343.183594 163.988281 C 342.59375 162.074219 341.871094 160.171875 341.027344 158.296875 C 337.648438 150.808594 332.128906 143.703125 324.738281 138.457031 C 317.402344 133.175781 308.410156 129.695312 299.125 128.519531 C 294.484375 127.890625 289.78125 127.800781 285.125 128.125 C 280.460938 128.433594 275.859375 129.207031 271.351562 130.289062 C 266.839844 131.371094 262.425781 132.796875 258.140625 134.484375 C 257.058594 134.898438 256.003906 135.347656 254.9375 135.789062 C 253.871094 136.257812 252.859375 136.679688 251.738281 137.210938 L 250.121094 137.972656 L 248.734375 138.644531 L 248.386719 138.8125 L 247.890625 139.066406 L 247.101562 139.476562 C 246.578125 139.753906 246.039062 140.023438 245.535156 140.304688 C 241.40625 142.542969 237.515625 144.917969 233.777344 147.40625 C 230.03125 149.886719 226.394531 152.429688 222.839844 155.035156 C 215.734375 160.25 208.851562 165.621094 202.039062 171.023438 C 201.941406 171.097656 201.84375 171.175781 201.746094 171.253906 C 206.527344 175.199219 211.226562 179.046875 215.964844 182.835938 C 218.101562 184.539062 220.667969 186.558594 223.261719 188.527344 C 224.332031 189.355469 225.332031 190.121094 226.300781 190.859375 C 231.261719 186.742188 236.144531 182.710938 240.980469 178.878906 C 244.1875 176.335938 247.351562 173.871094 250.503906 171.578125 C 253.65625 169.285156 256.761719 167.136719 259.796875 165.261719 C 260.179688 165.019531 260.554688 164.8125 260.929688 164.582031 L 261.496094 164.246094 L 261.636719 164.164062 C 261.703125 164.121094 261.511719 164.222656 261.675781 164.132812 L 262.007812 163.945312 L 263.351562 163.183594 L 264.480469 162.566406 C 265.179688 162.164062 266.023438 161.734375 266.792969 161.320312 C 267.582031 160.921875 268.367188 160.515625 269.160156 160.140625 C 270.738281 159.378906 272.320312 158.671875 273.902344 158.035156 C 275.480469 157.390625 277.054688 156.78125 278.628906 156.257812 C 284.917969 154.144531 291.125 153.054688 296.925781 153.160156 C 302.71875 153.285156 308.117188 154.554688 312.746094 157.027344 C 315.054688 158.257812 317.164062 159.769531 319.078125 161.46875 C 320.984375 163.179688 322.632812 165.132812 324.007812 167.226562 C 325.375 169.328125 326.488281 171.566406 327.316406 173.867188 C 328.140625 176.167969 328.65625 178.539062 328.882812 180.890625 C 329.339844 185.59375 328.675781 190.234375 327.035156 194.335938 C 325.433594 198.460938 322.953125 202.082031 320.070312 205.027344 C 317.222656 208.03125 313.980469 210.34375 310.859375 212.210938 C 304.5625 215.917969 298.757812 217.742188 294.824219 218.90625 C 292.839844 219.464844 291.292969 219.863281 290.246094 220.113281 C 289.195312 220.355469 288.652344 220.480469 288.652344 220.480469 C 288.652344 220.480469 289.207031 220.535156 290.285156 220.628906 C 291.363281 220.710938 292.96875 220.839844 295.082031 220.859375 C 297.191406 220.894531 299.808594 220.832031 302.90625 220.515625 C 306.003906 220.21875 309.566406 219.59375 313.527344 218.445312 C 317.480469 217.273438 321.816406 215.480469 326.207031 212.648438 C 330.554688 209.789062 334.945312 205.804688 338.441406 200.460938 C 341.878906 195.117188 344.417969 188.453125 345.007812 181.097656 C 345.308594 177.429688 345.160156 173.613281 344.519531 169.765625 "/><g clip-rule="nonzero" clip-path="url(#50982bb4a1)"><path style=" stroke:none;fill-rule:nonzero;fill:#ffffff;fill-opacity:1;" d="M 79.546875 216.921875 C 79.546875 216.921875 79.148438 216.828125 78.375 216.640625 C 77.597656 216.46875 76.453125 216.160156 74.972656 215.640625 C 72.074219 214.566406 67.691406 212.710938 63.238281 208.574219 C 58.777344 204.519531 54.46875 198.050781 52.289062 189.695312 C 50.101562 181.378906 49.96875 171.289062 53.074219 160.960938 C 54.617188 155.808594 56.992188 150.609375 60.316406 145.6875 C 63.636719 140.777344 68 136.207031 73.289062 132.46875 C 78.566406 128.714844 84.851562 125.976562 91.511719 124.492188 C 98.179688 122.960938 105.199219 122.851562 112.03125 123.722656 C 113.75 123.921875 115.441406 124.234375 117.144531 124.542969 L 119.625 125.09375 C 120.535156 125.335938 121.507812 125.59375 122.367188 125.859375 C 125.769531 126.898438 129.027344 128.183594 132.167969 129.613281 C 138.457031 132.476562 144.300781 135.921875 149.898438 139.632812 C 161.125 147.003906 171.449219 155.367188 181.652344 163.640625 C 191.777344 172.003906 201.738281 180.339844 211.625 188.253906 C 214.105469 190.222656 216.582031 192.164062 219.0625 194.054688 C 221.53125 195.964844 224 197.839844 226.476562 199.652344 C 231.425781 203.292969 236.414062 206.6875 241.375 209.878906 C 251.320312 216.203125 261.351562 221.421875 271.292969 224.789062 C 273.769531 225.652344 276.242188 226.371094 278.703125 226.976562 L 279.621094 227.199219 L 280.3125 227.363281 L 280.425781 227.390625 C 280.417969 227.394531 280.601562 227.425781 280.441406 227.402344 C 281.101562 227.535156 281.765625 227.667969 282.425781 227.800781 C 283.703125 228.019531 284.726562 228.234375 285.984375 228.398438 C 290.800781 229.121094 295.542969 229.261719 300.078125 228.976562 C 309.164062 228.4375 317.363281 225.976562 324.117188 222.621094 C 330.902344 219.285156 336.199219 215.035156 340.222656 211.171875 C 344.222656 207.257812 347.042969 203.757812 348.824219 201.277344 C 349.742188 200.050781 350.394531 199.070312 350.847656 198.417969 C 351.300781 197.761719 351.535156 197.421875 351.535156 197.421875 C 351.535156 197.421875 351.382812 197.804688 351.089844 198.542969 C 350.78125 199.277344 350.386719 200.40625 349.710938 201.796875 C 348.410156 204.601562 346.394531 208.730469 342.9375 213.515625 C 339.5 218.273438 334.601562 223.75 327.644531 228.550781 C 324.1875 230.957031 320.214844 233.136719 315.820312 235.019531 C 311.40625 236.839844 306.550781 238.320312 301.355469 239.242188 C 298.761719 239.734375 296.078125 240.03125 293.332031 240.214844 C 290.589844 240.40625 287.777344 240.441406 284.917969 240.316406 C 283.539062 240.285156 281.921875 240.136719 280.539062 240.003906 C 279.871094 239.929688 279.199219 239.859375 278.527344 239.78125 C 277.773438 239.671875 277.015625 239.5625 276.257812 239.449219 C 273.359375 239 270.441406 238.425781 267.53125 237.691406 C 255.878906 234.769531 244.335938 229.726562 233.261719 223.46875 C 227.703125 220.371094 222.257812 216.929688 216.890625 213.3125 C 214.199219 211.507812 211.535156 209.652344 208.882812 207.761719 C 206.242188 205.855469 203.628906 203.902344 201.015625 201.933594 C 190.558594 194.082031 180.441406 185.652344 170.34375 177.4375 C 165.332031 173.292969 160.324219 169.199219 155.300781 165.25 C 150.261719 161.332031 145.285156 157.449219 140.21875 153.953125 C 135.15625 150.460938 130.074219 147.222656 124.980469 144.636719 C 122.4375 143.347656 119.886719 142.230469 117.367188 141.347656 L 115.648438 140.769531 L 113.625 140.191406 C 112.300781 139.882812 110.984375 139.550781 109.664062 139.328125 C 99.117188 137.304688 88.824219 138.828125 80.582031 143.691406 C 72.296875 148.484375 66.230469 156.292969 62.769531 164.433594 C 59.234375 172.597656 58.203125 181.097656 59.027344 188.398438 C 59.835938 195.738281 62.574219 201.859375 65.875 206.167969 C 67.519531 208.332031 69.269531 210.078125 70.902344 211.496094 C 72.554688 212.898438 74.113281 213.921875 75.40625 214.71875 C 76.710938 215.472656 77.738281 216.054688 78.464844 216.386719 C 79.179688 216.742188 79.546875 216.921875 79.546875 216.921875 "/></g></g></svg>