<svg xmlns="http://www.w3.org/2000/svg" xmlns:xlink="http://www.w3.org/1999/xlink" width="500" zoomAndPan="magnify" viewBox="0 0 375 374.999991" height="500" preserveAspectRatio="xMidYMid meet" version="1.2"><defs><clipPath id="dbad89521a"><path d="M 46.652344 75.84375 L 200 75.84375 L 200 198.84375 L 46.652344 198.84375 Z M 46.652344 75.84375 "/></clipPath><clipPath id="f264e71239"><path d="M 70 82 L 328.652344 82 L 328.652344 183 L 70 183 Z M 70 82 "/></clipPath></defs><g id="944c47d7a7"><g clip-rule="nonzero" clip-path="url(#dbad89521a)"><path style=" stroke:none;fill-rule:nonzero;fill:#31abe1;fill-opacity:1;" d="M 195.671875 154.453125 C 189.679688 149.96875 183.789062 145.238281 178.035156 140.5625 C 173.738281 143.839844 169.429688 147.042969 165.085938 150.117188 C 159.183594 154.273438 153.230469 158.203125 147.210938 161.652344 C 144.203125 163.378906 141.179688 164.980469 138.152344 166.429688 C 135.128906 167.890625 132.097656 169.195312 129.074219 170.296875 C 123.042969 172.496094 117.042969 173.910156 111.328125 174.214844 C 108.46875 174.359375 105.636719 174.25 102.839844 173.882812 C 100.046875 173.515625 97.3125 172.855469 94.660156 171.980469 C 89.363281 170.207031 84.433594 167.4375 80.207031 163.925781 C 75.960938 160.429688 72.398438 156.207031 69.707031 151.59375 C 68.363281 149.289062 67.234375 146.882812 66.324219 144.421875 C 65.863281 143.195312 65.480469 141.949219 65.09375 140.707031 C 64.929688 140.074219 64.769531 139.445312 64.605469 138.820312 C 64.441406 138.195312 64.339844 137.558594 64.199219 136.929688 C 64.050781 136.273438 63.976562 135.714844 63.878906 135.136719 L 63.734375 134.273438 L 63.695312 134.050781 L 63.671875 133.769531 L 63.621094 133.207031 L 63.519531 132.089844 L 63.472656 131.53125 L 63.445312 131.253906 C 63.449219 131.628906 63.441406 131.289062 63.441406 131.339844 L 63.4375 131.222656 C 63.40625 130.585938 63.375 129.953125 63.339844 129.328125 C 63.292969 126.808594 63.359375 124.316406 63.636719 121.875 C 63.941406 119.445312 64.410156 117.074219 65.023438 114.777344 C 65.679688 112.496094 66.441406 110.28125 67.328125 108.160156 C 69.167969 103.953125 71.484375 100.148438 74.078125 96.835938 C 76.660156 93.503906 79.539062 90.699219 82.433594 88.339844 C 85.335938 85.988281 88.277344 84.109375 91.070312 82.601562 C 96.679688 79.625 101.648438 78.144531 105.074219 77.355469 C 105.933594 77.171875 106.695312 77.007812 107.355469 76.867188 C 108.019531 76.734375 108.59375 76.65625 109.046875 76.578125 C 109.960938 76.425781 110.429688 76.347656 110.429688 76.347656 C 110.429688 76.347656 109.957031 76.292969 109.039062 76.191406 C 108.578125 76.144531 108.007812 76.0625 107.328125 76.007812 C 106.640625 75.960938 105.84375 75.917969 104.929688 75.875 C 104.023438 75.851562 103.015625 75.871094 101.890625 75.867188 C 101.328125 75.894531 100.742188 75.929688 100.132812 75.960938 C 99.519531 75.996094 98.882812 76.027344 98.222656 76.113281 C 95.566406 76.339844 92.527344 76.886719 89.167969 77.808594 C 85.808594 78.730469 82.148438 80.101562 78.355469 82.078125 C 76.453125 83.050781 74.53125 84.199219 72.597656 85.496094 C 70.695312 86.835938 68.742188 88.289062 66.871094 89.96875 C 64.96875 91.617188 63.128906 93.476562 61.359375 95.515625 C 59.589844 97.558594 57.929688 99.808594 56.339844 102.210938 C 54.800781 104.644531 53.335938 107.238281 52.089844 110.027344 C 50.867188 112.824219 49.796875 115.78125 48.925781 118.886719 C 48.101562 122 47.457031 125.25 47.113281 128.609375 C 47.046875 129.449219 46.976562 130.296875 46.90625 131.144531 C 46.875 131.96875 46.84375 132.800781 46.808594 133.632812 L 46.785156 134.195312 L 46.777344 134.476562 L 46.78125 134.820312 L 46.804688 136.210938 C 46.824219 137.140625 46.84375 138.09375 46.917969 138.949219 C 47.289062 146.015625 49.074219 153.304688 52.148438 160.300781 C 53.695312 163.796875 55.5625 167.226562 57.792969 170.492188 C 60.035156 173.746094 62.605469 176.851562 65.484375 179.734375 C 71.25 185.480469 78.289062 190.320312 86.21875 193.65625 C 94.132812 197.003906 102.933594 198.824219 111.816406 198.839844 L 112.5 198.84375 C 112.730469 198.847656 112.933594 198.851562 113.265625 198.839844 L 115.066406 198.777344 L 115.964844 198.738281 L 116.789062 198.679688 L 118.433594 198.5625 C 120.617188 198.359375 122.789062 198.070312 124.921875 197.691406 C 129.195312 196.9375 133.359375 195.894531 137.390625 194.597656 C 141.414062 193.296875 145.308594 191.773438 149.09375 190.109375 C 152.875 188.429688 156.539062 186.59375 160.113281 184.660156 C 163.691406 182.730469 167.148438 180.667969 170.539062 178.542969 C 173.925781 176.417969 177.242188 174.226562 180.476562 171.96875 C 187.171875 167.316406 193.582031 162.445312 199.796875 157.523438 C 198.488281 156.5625 197.152344 155.5625 195.671875 154.453125 "/></g><path style=" stroke:none;fill-rule:nonzero;fill:#31abe1;fill-opacity:1;" d="M 322.503906 122.164062 C 322.226562 120.515625 321.84375 118.863281 321.355469 117.214844 C 320.851562 115.574219 320.230469 113.949219 319.503906 112.34375 C 316.601562 105.929688 311.859375 99.847656 305.515625 95.351562 C 299.214844 90.832031 291.492188 87.851562 283.519531 86.84375 C 279.53125 86.304688 275.492188 86.230469 271.496094 86.507812 C 267.488281 86.769531 263.535156 87.433594 259.664062 88.363281 C 255.792969 89.285156 252 90.507812 248.316406 91.953125 C 247.390625 92.308594 246.484375 92.691406 245.570312 93.070312 C 244.652344 93.472656 243.78125 93.832031 242.820312 94.285156 L 241.429688 94.9375 L 240.242188 95.515625 L 239.941406 95.660156 L 239.515625 95.875 L 238.839844 96.226562 C 238.390625 96.464844 237.925781 96.695312 237.492188 96.9375 C 233.949219 98.851562 230.605469 100.886719 227.398438 103.015625 C 224.175781 105.140625 221.054688 107.316406 218.003906 109.546875 C 211.898438 114.015625 205.988281 118.613281 200.140625 123.238281 C 200.054688 123.304688 199.96875 123.371094 199.886719 123.4375 C 203.992188 126.8125 208.03125 130.109375 212.097656 133.355469 C 213.933594 134.808594 216.140625 136.542969 218.363281 138.226562 C 219.28125 138.9375 220.144531 139.589844 220.976562 140.226562 C 225.238281 136.699219 229.429688 133.246094 233.582031 129.964844 C 236.335938 127.789062 239.054688 125.675781 241.761719 123.714844 C 244.46875 121.75 247.136719 119.910156 249.742188 118.308594 C 250.070312 118.097656 250.390625 117.917969 250.714844 117.726562 L 251.199219 117.4375 L 251.320312 117.363281 C 251.378906 117.328125 251.214844 117.414062 251.355469 117.339844 L 251.640625 117.175781 L 252.792969 116.527344 L 253.765625 115.996094 C 254.367188 115.652344 255.089844 115.285156 255.75 114.929688 C 256.429688 114.589844 257.101562 114.242188 257.785156 113.921875 C 259.140625 113.269531 260.496094 112.664062 261.855469 112.117188 C 263.210938 111.566406 264.5625 111.042969 265.914062 110.597656 C 271.316406 108.785156 276.644531 107.855469 281.628906 107.945312 C 286.601562 108.050781 291.238281 109.136719 295.214844 111.253906 C 297.199219 112.308594 299.011719 113.601562 300.652344 115.058594 C 302.289062 116.523438 303.707031 118.195312 304.886719 119.988281 C 306.0625 121.789062 307.015625 123.703125 307.726562 125.675781 C 308.4375 127.644531 308.882812 129.675781 309.074219 131.6875 C 309.464844 135.714844 308.898438 139.6875 307.488281 143.203125 C 306.113281 146.730469 303.984375 149.835938 301.503906 152.355469 C 299.058594 154.925781 296.277344 156.90625 293.59375 158.507812 C 288.1875 161.683594 283.203125 163.242188 279.824219 164.238281 C 278.121094 164.71875 276.789062 165.058594 275.890625 165.273438 C 274.988281 165.480469 274.523438 165.589844 274.523438 165.589844 C 274.523438 165.589844 275 165.632812 275.925781 165.710938 C 276.851562 165.785156 278.230469 165.894531 280.042969 165.910156 C 281.859375 165.941406 284.105469 165.886719 286.765625 165.617188 C 289.425781 165.363281 292.484375 164.828125 295.886719 163.84375 C 299.28125 162.839844 303.003906 161.304688 306.777344 158.878906 C 310.511719 156.433594 314.28125 153.019531 317.28125 148.445312 C 320.234375 143.871094 322.417969 138.164062 322.921875 131.867188 C 323.179688 128.726562 323.054688 125.457031 322.503906 122.164062 "/><g clip-rule="nonzero" clip-path="url(#f264e71239)"><path style=" stroke:none;fill-rule:nonzero;fill:#ffffff;fill-opacity:1;" d="M 94.941406 162.539062 C 94.941406 162.539062 94.597656 162.457031 93.933594 162.300781 C 93.269531 162.152344 92.28125 161.886719 91.011719 161.445312 C 88.523438 160.523438 84.757812 158.933594 80.933594 155.390625 C 77.101562 151.921875 73.402344 146.382812 71.53125 139.226562 C 69.652344 132.105469 69.539062 123.464844 72.203125 114.625 C 73.53125 110.210938 75.570312 105.761719 78.425781 101.546875 C 81.277344 97.34375 85.023438 93.425781 89.566406 90.226562 C 94.101562 87.011719 99.496094 84.667969 105.214844 83.398438 C 110.945312 82.085938 116.972656 81.992188 122.839844 82.738281 C 124.316406 82.90625 125.765625 83.175781 127.230469 83.4375 L 129.359375 83.910156 C 130.140625 84.121094 130.976562 84.339844 131.714844 84.566406 C 134.636719 85.457031 137.433594 86.554688 140.132812 87.78125 C 145.535156 90.234375 150.550781 93.183594 155.359375 96.359375 C 165 102.675781 173.867188 109.835938 182.632812 116.917969 C 191.328125 124.078125 199.882812 131.214844 208.371094 137.992188 C 210.5 139.675781 212.628906 141.34375 214.757812 142.957031 C 216.878906 144.597656 219 146.203125 221.128906 147.753906 C 225.375 150.871094 229.660156 153.777344 233.921875 156.507812 C 242.460938 161.921875 251.078125 166.394531 259.613281 169.277344 C 261.742188 170.015625 263.867188 170.632812 265.976562 171.148438 L 266.769531 171.339844 L 267.160156 171.433594 L 267.359375 171.480469 L 267.457031 171.503906 C 267.453125 171.503906 267.609375 171.535156 267.472656 171.511719 C 268.039062 171.628906 268.609375 171.742188 269.175781 171.855469 C 270.273438 172.042969 271.152344 172.226562 272.230469 172.367188 C 276.367188 172.988281 280.441406 173.105469 284.335938 172.859375 C 292.136719 172.398438 299.179688 170.292969 304.980469 167.421875 C 310.808594 164.5625 315.359375 160.925781 318.8125 157.617188 C 322.25 154.265625 324.671875 151.265625 326.199219 149.144531 C 326.988281 148.09375 327.546875 147.253906 327.9375 146.695312 C 328.328125 146.132812 328.527344 145.84375 328.527344 145.84375 C 328.527344 145.84375 328.398438 146.171875 328.144531 146.804688 C 327.882812 147.433594 327.542969 148.398438 326.960938 149.589844 C 325.84375 151.988281 324.113281 155.527344 321.144531 159.621094 C 318.191406 163.695312 313.984375 168.386719 308.011719 172.496094 C 305.039062 174.558594 301.628906 176.425781 297.855469 178.035156 C 294.066406 179.597656 289.894531 180.863281 285.433594 181.652344 C 283.203125 182.074219 280.898438 182.328125 278.542969 182.484375 C 276.1875 182.648438 273.769531 182.679688 271.316406 182.570312 C 270.132812 182.542969 268.746094 182.417969 267.554688 182.304688 C 266.980469 182.242188 266.40625 182.179688 265.828125 182.113281 C 265.179688 182.019531 264.53125 181.925781 263.878906 181.828125 C 261.390625 181.445312 258.882812 180.953125 256.386719 180.324219 C 246.375 177.820312 236.464844 173.503906 226.953125 168.148438 C 222.179688 165.492188 217.503906 162.546875 212.890625 159.449219 C 210.582031 157.90625 208.296875 156.316406 206.015625 154.695312 C 203.746094 153.066406 201.503906 151.390625 199.261719 149.707031 C 190.277344 142.984375 181.589844 135.765625 172.917969 128.730469 C 168.613281 125.183594 164.3125 121.675781 159.996094 118.296875 C 155.671875 114.941406 151.398438 111.613281 147.046875 108.621094 C 142.699219 105.632812 138.335938 102.859375 133.960938 100.644531 C 131.773438 99.542969 129.585938 98.582031 127.421875 97.828125 L 125.945312 97.335938 L 124.207031 96.839844 C 123.070312 96.574219 121.9375 96.292969 120.804688 96.101562 C 111.75 94.367188 102.90625 95.671875 95.832031 99.835938 C 88.714844 103.941406 83.503906 110.625 80.53125 117.59375 C 77.496094 124.585938 76.609375 131.867188 77.320312 138.117188 C 78.011719 144.398438 80.363281 149.640625 83.199219 153.332031 C 84.609375 155.183594 86.113281 156.679688 87.519531 157.890625 C 88.933594 159.09375 90.273438 159.972656 91.382812 160.652344 C 92.503906 161.300781 93.386719 161.796875 94.011719 162.082031 C 94.625 162.386719 94.941406 162.539062 94.941406 162.539062 "/></g><g style="fill:#ffffff;fill-opacity:1;"><g transform="translate(28.650001, 266.444006)"><path style="stroke:none" d="M 6.125 0 L 6.125 -51.046875 L 17.71875 -51.046875 L 17.71875 0 Z M 6.125 0 "/></g></g><g style="fill:#ffffff;fill-opacity:1;"><g transform="translate(52.491861, 266.444006)"><path style="stroke:none" d="M 6.125 0 L 6.125 -51.046875 L 15.96875 -51.046875 L 38.5 -19.984375 L 38.5 -51.046875 L 50.03125 -51.046875 L 50.03125 0 L 40.1875 0 L 17.640625 -31.28125 L 17.640625 0 Z M 6.125 0 "/></g></g><g style="fill:#ffffff;fill-opacity:1;"><g transform="translate(108.633223, 266.444006)"><path style="stroke:none" d="M 6.125 0 L 6.125 -51.046875 L 38.140625 -51.046875 L 38.140625 -40.546875 L 17.71875 -40.546875 L 17.71875 -27.78125 L 36.25 -27.78125 L 36.25 -17.578125 L 17.71875 -17.578125 L 17.71875 0 Z M 6.125 0 "/></g></g><g style="fill:#ffffff;fill-opacity:1;"><g transform="translate(149.973673, 266.444006)"><path style="stroke:none" d="M 6.125 0 L 6.125 -51.046875 L 17.71875 -51.046875 L 17.71875 0 Z M 6.125 0 "/></g></g><g style="fill:#ffffff;fill-opacity:1;"><g transform="translate(173.815533, 266.444006)"><path style="stroke:none" d="M 6.125 0 L 6.125 -51.046875 L 15.96875 -51.046875 L 38.5 -19.984375 L 38.5 -51.046875 L 50.03125 -51.046875 L 50.03125 0 L 40.1875 0 L 17.640625 -31.28125 L 17.640625 0 Z M 6.125 0 "/></g></g><g style="fill:#ffffff;fill-opacity:1;"><g transform="translate(229.956895, 266.444006)"><path style="stroke:none" d="M 6.125 0 L 6.125 -51.046875 L 17.71875 -51.046875 L 17.71875 0 Z M 6.125 0 "/></g></g><g style="fill:#ffffff;fill-opacity:1;"><g transform="translate(253.798754, 266.444006)"><path style="stroke:none" d="M 18.375 0 L 18.375 -40.1875 L 2.1875 -40.1875 L 2.1875 -51.046875 L 46.15625 -51.046875 L 46.15625 -40.1875 L 29.96875 -40.1875 L 29.96875 0 Z M 18.375 0 "/></g></g><g style="fill:#ffffff;fill-opacity:1;"><g transform="translate(302.138658, 266.444006)"><path style="stroke:none" d="M 6.125 0 L 6.125 -51.046875 L 39.671875 -51.046875 L 39.671875 -41.28125 L 17.640625 -41.28125 L 17.640625 -30.703125 L 37.703125 -30.703125 L 37.703125 -21 L 17.640625 -21 L 17.640625 -9.84375 L 40.46875 -9.84375 L 40.46875 0 Z M 6.125 0 "/></g></g><g style="fill:#ffffff;fill-opacity:1;"><g transform="translate(116.167236, 291.548541)"><path style="stroke:none" d="M 1.484375 -4.390625 L 1.484375 -6.96875 L 8.8125 -6.96875 L 8.8125 -4.390625 Z M 1.484375 -4.390625 "/></g></g><g style="fill:#ffffff;fill-opacity:1;"><g transform="translate(126.871683, 291.548541)"><path style="stroke:none" d=""/></g></g><g style="fill:#ffffff;fill-opacity:1;"><g transform="translate(132.550666, 291.548541)"><path style="stroke:none" d="M 6.265625 0 L 0.203125 -15.765625 L 4.0625 -15.765625 L 6.15625 -10.15625 L 8.046875 -5.15625 L 12.015625 -15.765625 L 15.84375 -15.765625 L 9.78125 0 Z M 6.265625 0 "/></g></g><g style="fill:#ffffff;fill-opacity:1;"><g transform="translate(148.979186, 291.548541)"><path style="stroke:none" d="M 1.890625 0 L 1.890625 -15.765625 L 12.25 -15.765625 L 12.25 -12.75 L 5.453125 -12.75 L 5.453125 -9.484375 L 11.65625 -9.484375 L 11.65625 -6.484375 L 5.453125 -6.484375 L 5.453125 -3.046875 L 12.5 -3.046875 L 12.5 0 Z M 1.890625 0 "/></g></g><g style="fill:#ffffff;fill-opacity:1;"><g transform="translate(163.018906, 291.548541)"><path style="stroke:none" d="M 1.890625 0 L 1.890625 -15.765625 L 4.9375 -15.765625 L 11.890625 -6.171875 L 11.890625 -15.765625 L 15.453125 -15.765625 L 15.453125 0 L 12.421875 0 L 5.453125 -9.671875 L 5.453125 0 Z M 1.890625 0 "/></g></g><g style="fill:#ffffff;fill-opacity:1;"><g transform="translate(180.754485, 291.548541)"><path style="stroke:none" d="M 1.890625 0 L 1.890625 -15.765625 L 8.140625 -15.765625 C 9.804688 -15.765625 11.257812 -15.4375 12.5 -14.78125 C 13.75 -14.125 14.71875 -13.203125 15.40625 -12.015625 C 16.101562 -10.828125 16.453125 -9.453125 16.453125 -7.890625 C 16.453125 -6.304688 16.101562 -4.925781 15.40625 -3.75 C 14.71875 -2.570312 13.75 -1.648438 12.5 -0.984375 C 11.257812 -0.328125 9.804688 0 8.140625 0 Z M 5.46875 -3.296875 L 8.0625 -3.296875 C 9 -3.296875 9.816406 -3.484375 10.515625 -3.859375 C 11.222656 -4.242188 11.773438 -4.78125 12.171875 -5.46875 C 12.578125 -6.164062 12.78125 -6.972656 12.78125 -7.890625 C 12.78125 -8.816406 12.578125 -9.617188 12.171875 -10.296875 C 11.773438 -10.984375 11.21875 -11.519531 10.5 -11.90625 C 9.789062 -12.289062 8.960938 -12.484375 8.015625 -12.484375 L 5.46875 -12.484375 Z M 5.46875 -3.296875 "/></g></g><g style="fill:#ffffff;fill-opacity:1;"><g transform="translate(198.535133, 291.548541)"><path style="stroke:none" d="M 1.890625 0 L 1.890625 -15.765625 L 5.46875 -15.765625 L 5.46875 0 Z M 1.890625 0 "/></g></g><g style="fill:#ffffff;fill-opacity:1;"><g transform="translate(206.287397, 291.548541)"><path style="stroke:none" d="M 1.890625 0 L 1.890625 -15.765625 L 4.9375 -15.765625 L 11.890625 -6.171875 L 11.890625 -15.765625 L 15.453125 -15.765625 L 15.453125 0 L 12.421875 0 L 5.453125 -9.671875 L 5.453125 0 Z M 1.890625 0 "/></g></g><g style="fill:#ffffff;fill-opacity:1;"><g transform="translate(224.022976, 291.548541)"><path style="stroke:none" d="M 9.234375 0.3125 C 7.628906 0.3125 6.203125 -0.0351562 4.953125 -0.734375 C 3.710938 -1.429688 2.738281 -2.394531 2.03125 -3.625 C 1.320312 -4.851562 0.96875 -6.273438 0.96875 -7.890625 C 0.96875 -9.492188 1.316406 -10.910156 2.015625 -12.140625 C 2.710938 -13.367188 3.679688 -14.332031 4.921875 -15.03125 C 6.160156 -15.738281 7.578125 -16.09375 9.171875 -16.09375 C 10.441406 -16.09375 11.617188 -15.863281 12.703125 -15.40625 C 13.785156 -14.957031 14.707031 -14.320312 15.46875 -13.5 C 16.226562 -12.6875 16.765625 -11.722656 17.078125 -10.609375 L 13.21875 -10.609375 C 12.84375 -11.304688 12.304688 -11.84375 11.609375 -12.21875 C 10.910156 -12.601562 10.117188 -12.796875 9.234375 -12.796875 C 8.316406 -12.796875 7.503906 -12.582031 6.796875 -12.15625 C 6.097656 -11.738281 5.546875 -11.160156 5.140625 -10.421875 C 4.742188 -9.691406 4.546875 -8.847656 4.546875 -7.890625 C 4.546875 -6.941406 4.738281 -6.097656 5.125 -5.359375 C 5.519531 -4.628906 6.070312 -4.046875 6.78125 -3.609375 C 7.488281 -3.179688 8.320312 -2.96875 9.28125 -2.96875 C 10.4375 -2.96875 11.394531 -3.257812 12.15625 -3.84375 C 12.925781 -4.4375 13.425781 -5.210938 13.65625 -6.171875 L 8.546875 -6.171875 L 8.546875 -8.9375 L 17.4375 -8.9375 C 17.53125 -7.59375 17.398438 -6.351562 17.046875 -5.21875 C 16.691406 -4.09375 16.148438 -3.113281 15.421875 -2.28125 C 14.691406 -1.445312 13.804688 -0.804688 12.765625 -0.359375 C 11.722656 0.0859375 10.546875 0.3125 9.234375 0.3125 Z M 9.234375 0.3125 "/></g></g><g style="fill:#ffffff;fill-opacity:1;"><g transform="translate(242.795206, 291.548541)"><path style="stroke:none" d=""/></g></g><g style="fill:#ffffff;fill-opacity:1;"><g transform="translate(248.47419, 291.548541)"><path style="stroke:none" d="M 1.484375 -4.390625 L 1.484375 -6.96875 L 8.8125 -6.96875 L 8.8125 -4.390625 Z M 1.484375 -4.390625 "/></g></g></g></svg>