<svg xmlns="http://www.w3.org/2000/svg" xmlns:xlink="http://www.w3.org/1999/xlink" width="250" zoomAndPan="magnify" viewBox="0 0 187.92 196.08" height="250" preserveAspectRatio="xMidYMid meet" version="1.2"><defs><clipPath id="325bc691f0"><path d="M 0.398438 0 L 187 0 L 187 186.625 L 0.398438 186.625 Z M 0.398438 0 "/></clipPath></defs><g id="d79c6d509a"><g clip-rule="nonzero" clip-path="url(#325bc691f0)"><path style=" stroke:none;fill-rule:nonzero;fill:#f40000;fill-opacity:1;" d="M 186.84375 93.238281 C 186.851562 55.53125 164.140625 21.535156 129.308594 7.101562 C 94.472656 -7.332031 54.375 0.640625 27.707031 27.300781 C 1.042969 53.960938 -6.933594 94.058594 7.492188 128.894531 C 21.921875 163.730469 55.914062 186.445312 93.621094 186.445312 C 145.101562 186.445312 186.835938 144.71875 186.84375 93.238281 "/></g><path style=" stroke:none;fill-rule:nonzero;fill:#ffffff;fill-opacity:1;" d="M 127.976562 69.527344 C 125.367188 70.800781 123.054688 72.601562 121.183594 74.8125 C 117.507812 78.84375 115.40625 83.367188 116.972656 84.5625 C 117.585938 85.027344 118.972656 85.101562 121.449219 82.832031 C 123.785156 80.785156 125.621094 78.230469 126.8125 75.367188 C 128.4375 71.378906 127.914062 69.542969 127.914062 69.5 M 147.921875 76.738281 C 143.859375 74.648438 140.90625 72.113281 137.8125 70.527344 C 134.722656 68.945312 133.023438 68.425781 130.632812 68.679688 C 130.296875 68.730469 129.96875 68.8125 129.648438 68.917969 C 129.648438 68.917969 130.886719 73.097656 126.003906 80.144531 C 121.121094 87.191406 116.570312 87.308594 115.359375 85.324219 C 114.148438 83.339844 115.746094 79.039062 118.628906 75.292969 C 121.015625 72.488281 123.816406 70.058594 126.929688 68.09375 C 126.929688 68.09375 125.242188 67.082031 121.09375 69.425781 C 114.121094 73.773438 108.144531 79.546875 103.566406 86.371094 C 97.113281 95.550781 95.832031 100.628906 94.90625 104.597656 C 93.980469 108.570312 94.816406 112.855469 99.234375 112.855469 C 103.65625 112.855469 108.789062 106.105469 110.238281 103.761719 C 112.925781 99.402344 114.71875 92.714844 111.03125 93.640625 C 109.207031 94.089844 107.746094 96.089844 106.835938 98.015625 C 106.246094 99.25 105.800781 100.546875 105.503906 101.882812 C 104.222656 102.417969 103.019531 103.121094 101.921875 103.972656 C 100.710938 104.871094 99.578125 105.871094 98.535156 106.957031 C 98.800781 104.035156 99.671875 101.199219 101.085938 98.628906 C 102.914062 94.625 106.5625 91.75 110.878906 90.910156 C 113.269531 90.714844 116.359375 92.730469 113.730469 100.179688 C 111.105469 107.628906 103.414062 116.675781 95.292969 116.796875 C 87.828125 116.902344 82.886719 107.332031 93.308594 90.625 C 104.910156 72.171875 118.34375 66.496094 122.824219 65.871094 C 127.304688 65.242188 128.648438 67.167969 128.648438 67.167969 C 131.292969 66.082031 134.152344 65.605469 137.007812 65.78125 C 142.382812 66.140625 146.535156 69.945312 152.011719 72.605469 C 150.519531 73.992188 149.234375 75.425781 147.996094 76.769531 M 172.09375 70.527344 C 168.390625 72.933594 163.226562 75.097656 158.28125 74.621094 C 157.027344 75.917969 155.683594 77.410156 154.339844 79.097656 C 162.925781 80.800781 170.4375 75.472656 174.4375 70.933594 C 175.890625 69.308594 177.140625 67.515625 178.15625 65.585938 C 176.339844 67.46875 174.304688 69.128906 172.09375 70.527344 M 160.6875 94.730469 C 160.753906 94.617188 160.800781 94.496094 160.835938 94.371094 C 160.792969 93.96875 160.464844 93.652344 160.058594 93.625 C 159.238281 93.625 158.117188 93.746094 155.207031 96.96875 C 152.777344 99.648438 150.6875 102.617188 148.980469 105.808594 C 147.308594 108.792969 146.636719 111.136719 147.609375 111.78125 C 147.921875 111.941406 148.285156 111.980469 148.625 111.886719 C 149.265625 111.734375 150.011719 111.125 151.132812 109.824219 C 151.652344 109.210938 152.25 108.332031 152.9375 107.390625 C 154.863281 104.761719 159.714844 96.460938 160.6875 94.789062 M 130.289062 98.269531 C 130.78125 96.984375 131.394531 94.492188 130.09375 93.507812 C 128.796875 92.519531 125.183594 94.910156 125.152344 97.417969 C 125.261719 99.242188 126.503906 100.800781 128.257812 101.316406 C 128.601562 101.417969 128.722656 101.402344 128.886719 101.121094 C 129.421875 100.203125 129.890625 99.25 130.289062 98.269531 M 127.648438 103.015625 C 126.78125 102.617188 125.960938 102.117188 125.214844 101.523438 C 124.472656 100.898438 123.851562 100.144531 123.378906 99.300781 C 123.378906 99.222656 123.289062 99.300781 123.226562 99.300781 C 122.457031 100.253906 121.738281 101.25 121.078125 102.285156 C 119.195312 105.0625 116.300781 110.78125 118.929688 111.75 C 120.601562 112.378906 123.40625 109.4375 124.898438 107.480469 C 125.945312 106.125 126.886719 104.691406 127.722656 103.195312 C 127.722656 103.046875 127.722656 103 127.632812 102.972656 M 157.371094 109.570312 C 156.65625 110.707031 155.878906 112.886719 158.207031 111.527344 C 161.074219 109.871094 165.152344 103.671875 165.152344 103.671875 L 166.988281 103.671875 C 165.316406 106.265625 163.449219 108.726562 161.402344 111.035156 C 158.492188 114.242188 154.953125 117.171875 152.445312 116.886719 C 149.460938 116.542969 150.445312 112.722656 150.445312 112.722656 C 150.445312 112.722656 146.265625 117.199219 143.382812 116.839844 C 139.53125 116.453125 140.742188 111.585938 140.742188 111.585938 C 140.742188 111.585938 136.261719 117.007812 133.277344 116.828125 C 128.574219 116.558594 129.753906 110.855469 131.066406 106.808594 C 131.769531 104.644531 132.410156 102.957031 132.410156 102.957031 C 132.410156 102.957031 131.945312 103.078125 130.917969 103.226562 C 130.394531 103.226562 129.421875 103.359375 129.421875 103.359375 C 129.421875 103.359375 127.453125 106.808594 125.898438 108.882812 C 124.347656 110.960938 117.75 118.125 113.867188 116.707031 C 110.238281 115.378906 111.433594 109.824219 113.554688 105.421875 C 116.628906 99 125.273438 89.742188 130.273438 90.953125 C 135.277344 92.164062 130.394531 101.65625 130.394531 101.65625 C 130.71875 101.730469 131.054688 101.730469 131.378906 101.65625 C 132.027344 101.527344 132.660156 101.34375 133.277344 101.105469 C 136.339844 94.753906 140.003906 88.710938 144.21875 83.054688 C 149.96875 75.933594 161.433594 63.644531 165.941406 66.632812 C 167.03125 67.363281 166.539062 69.871094 165.0625 72.933594 C 164.40625 73.125 163.71875 73.320312 163.03125 73.457031 C 163.851562 72.09375 164.46875 70.621094 164.867188 69.082031 C 165.539062 65.40625 156.941406 73.171875 150.789062 81.53125 C 147.089844 86.570312 143.804688 91.898438 140.964844 97.460938 C 142.078125 96.792969 143.144531 96.039062 144.144531 95.207031 C 146.882812 92.925781 149.484375 90.488281 151.9375 87.90625 C 154.328125 85.484375 156.570312 82.921875 158.65625 80.234375 C 159.3125 80.234375 159.96875 80.128906 160.597656 80.023438 C 158.355469 83.078125 155.910156 85.976562 153.28125 88.699219 C 150.832031 91.175781 148.175781 93.835938 145.816406 95.789062 C 143.753906 97.539062 141.585938 99.152344 139.320312 100.628906 C 139.320312 100.628906 133.933594 111.453125 136.859375 112.152344 C 138.574219 112.570312 141.964844 107.332031 141.964844 107.332031 C 141.964844 107.332031 146.445312 100.566406 149.070312 97.523438 C 152.714844 93.386719 155.851562 90.996094 158.984375 90.9375 C 160.207031 91.058594 161.289062 91.773438 161.882812 92.847656 L 162.730469 91.519531 L 168.046875 91.519531 C 168.046875 91.519531 158.164062 108.285156 157.371094 109.554688 M 172.09375 70.527344 C 168.390625 72.933594 163.226562 75.097656 158.28125 74.621094 C 157.027344 75.917969 155.683594 77.410156 154.339844 79.097656 C 162.925781 80.800781 170.4375 75.472656 174.4375 70.933594 C 175.890625 69.308594 177.140625 67.515625 178.15625 65.585938 C 176.339844 67.46875 174.304688 69.128906 172.09375 70.527344 M 162.984375 113.722656 L 163.792969 113.722656 C 164.003906 113.6875 164.222656 113.6875 164.433594 113.722656 C 164.675781 113.816406 164.828125 114.058594 164.808594 114.320312 C 164.816406 114.5 164.726562 114.671875 164.570312 114.765625 C 164.464844 114.835938 164.347656 114.882812 164.226562 114.902344 C 164.386719 114.902344 164.539062 114.988281 164.628906 115.125 C 164.703125 115.230469 164.75 115.355469 164.761719 115.484375 L 164.761719 115.8125 C 164.761719 115.8125 164.761719 115.929688 164.761719 115.945312 L 164.390625 115.945312 L 164.390625 115.675781 C 164.390625 115.410156 164.390625 115.230469 164.164062 115.15625 C 164.035156 115.082031 163.882812 115.050781 163.734375 115.066406 L 163.402344 115.066406 L 163.402344 115.976562 L 162.984375 115.976562 Z M 164.390625 114.4375 C 164.390625 114.257812 164.390625 114.140625 164.242188 114.09375 C 164.085938 114.023438 163.917969 113.992188 163.746094 114.003906 L 163.402344 114.003906 L 163.402344 114.839844 L 163.761719 114.839844 C 163.890625 114.863281 164.023438 114.863281 164.152344 114.839844 C 164.296875 114.78125 164.390625 114.640625 164.390625 114.484375 M 165.882812 114.929688 C 165.886719 115.894531 165.246094 116.738281 164.316406 116.988281 C 163.386719 117.242188 162.40625 116.835938 161.925781 116 C 161.445312 115.167969 161.585938 114.117188 162.269531 113.4375 C 163.101562 112.632812 164.421875 112.632812 165.253906 113.4375 C 165.660156 113.828125 165.882812 114.371094 165.867188 114.929688 M 163.746094 113.109375 C 163.265625 113.105469 162.800781 113.300781 162.464844 113.648438 C 162.113281 113.980469 161.917969 114.445312 161.925781 114.929688 C 161.921875 115.421875 162.113281 115.898438 162.464844 116.246094 C 162.800781 116.585938 163.265625 116.777344 163.746094 116.765625 C 164.246094 116.800781 164.734375 116.625 165.097656 116.28125 C 165.460938 115.9375 165.664062 115.460938 165.660156 114.960938 C 165.671875 114.476562 165.484375 114.011719 165.136719 113.675781 C 164.792969 113.328125 164.324219 113.132812 163.835938 113.140625 M 97.863281 78.800781 L 92.832031 78.800781 L 89.980469 83.398438 L 94.996094 83.398438 Z M 73.972656 94.714844 C 76.125 91.730469 82.019531 81.503906 82.019531 81.503906 C 81.964844 81.097656 81.636719 80.789062 81.230469 80.757812 C 80.410156 80.757812 79.066406 80.996094 76.347656 84.382812 C 73.984375 87.15625 71.867188 90.128906 70.015625 93.265625 C 68.34375 96.253906 67.597656 98.492188 68.523438 99.074219 C 68.839844 99.226562 69.199219 99.265625 69.539062 99.179688 C 70.625 98.746094 71.558594 98.003906 72.226562 97.042969 C 72.765625 96.449219 73.347656 95.550781 74.046875 94.671875 M 47.054688 80.785156 C 45.667969 79.742188 42.128906 82.1875 42.113281 84.710938 C 42.097656 87.234375 45.308594 88.085938 45.726562 88.085938 C 45.921875 88.148438 46.132812 88.070312 46.234375 87.894531 C 46.324219 87.699219 46.757812 86.890625 47.25 85.625 C 47.742188 84.355469 48.355469 81.832031 47.054688 80.84375 M 44.964844 89.714844 C 43.992188 89.410156 43.066406 88.984375 42.203125 88.445312 C 41.382812 87.90625 40.714844 87.164062 40.261719 86.296875 C 40.261719 86.207031 40.15625 86.296875 40.097656 86.296875 C 40.039062 86.296875 39.769531 86.742188 37.886719 89.503906 C 36.007812 92.265625 33.246094 98.015625 35.859375 98.96875 C 37.53125 99.597656 40.335938 96.640625 41.828125 94.699219 C 42.976562 93.171875 44.039062 91.582031 45.007812 89.9375 C 45.085938 89.773438 45.007812 89.730469 44.921875 89.699219 M 86.023438 91.386719 L 87.859375 91.386719 C 87.859375 91.386719 78.632812 104.734375 73.40625 104.136719 C 70.511719 103.792969 71.359375 100.195312 71.359375 100.195312 C 71.359375 100.195312 67.269531 104.988281 63.523438 104.03125 C 60.117188 103.152344 62.3125 97.492188 62.3125 97.492188 C 61.925781 97.640625 54.550781 105.957031 49.371094 103.972656 C 44.1875 101.988281 46.757812 94.925781 47.875 92.835938 C 48.710938 91.074219 49.667969 89.339844 49.667969 89.339844 C 49.667969 89.339844 48.832031 89.578125 48.308594 89.699219 L 47.011719 89.96875 C 47.011719 89.96875 44.441406 94.132812 42.875 96.222656 C 41.308594 98.3125 34.738281 105.464844 30.75 104.03125 C 26.765625 102.597656 27.765625 97.121094 30.003906 92.761719 C 33.574219 85.667969 42.054688 76.980469 47.160156 78.292969 C 52.265625 79.605469 48.054688 87.96875 48.054688 87.96875 C 48.054688 87.96875 49.070312 88.117188 51.535156 86.472656 C 55.085938 84.054688 59.761719 77.515625 64.820312 78.324219 C 67.195312 78.664062 69.40625 81.113281 66.390625 85.789062 C 65.402344 87.28125 63.792969 88.609375 62.539062 87.28125 C 61.761719 86.472656 62.433594 84.964844 63.253906 83.949219 C 63.902344 83.105469 64.925781 82.636719 65.984375 82.695312 C 65.984375 82.695312 66.824219 80.785156 64.703125 80.816406 C 62.96875 80.816406 58.625 84.863281 56.164062 88.921875 C 53.894531 92.65625 50.472656 99 53.921875 100.375 C 57.058594 101.644531 63.046875 94.535156 65.867188 90.804688 C 68.6875 87.070312 74.960938 78.621094 80.257812 78.277344 C 81.414062 78.265625 82.503906 78.824219 83.171875 79.769531 L 83.78125 78.800781 L 89.082031 78.800781 C 89.082031 78.800781 79.09375 95.476562 78.320312 96.714844 C 77.707031 97.703125 76.824219 99.925781 79.15625 98.6875 C 81.484375 97.449219 86.113281 91.386719 86.113281 91.386719 M 83.1875 118.097656 C 79.273438 115.402344 74.597656 114.042969 69.851562 114.214844 C 67.246094 114.285156 64.828125 115.59375 63.34375 117.738281 C 61.328125 114.214844 57.371094 112.050781 51.144531 112.09375 C 41.15625 112.214844 31.246094 116.828125 23.390625 116.828125 C 15.925781 116.828125 10.371094 112.09375 10.550781 103.703125 C 10.851562 88.96875 23.316406 75.695312 32.617188 69.707031 C 37.960938 66.273438 42.441406 65.230469 45.382812 65.585938 C 46.777344 65.796875 47.976562 66.679688 48.59375 67.949219 C 49.210938 69.214844 49.167969 70.707031 48.472656 71.933594 C 46.085938 77.261719 42.800781 76.816406 42.917969 74.261719 C 43.015625 72.910156 43.761719 71.691406 44.921875 70.992188 C 45.511719 70.679688 46.175781 70.515625 46.847656 70.515625 C 47.324219 70.125 47.683594 67.214844 43.859375 68.171875 C 40.039062 69.125 35.425781 72.886719 31.019531 77.742188 C 26.617188 82.59375 19.808594 91.789062 18.074219 101.523438 C 17.285156 106.003906 17.820312 114.15625 28.421875 114.050781 C 37.378906 114.050781 50.667969 108.078125 62.851562 108.167969 C 67.089844 108.140625 71.257812 109.277344 74.898438 111.453125 C 78 113.238281 80.796875 115.503906 83.1875 118.171875 "/></g></svg>