<svg xmlns="http://www.w3.org/2000/svg" xmlns:xlink="http://www.w3.org/1999/xlink" width="250" zoomAndPan="magnify" viewBox="0 0 187.92 196.08" height="250" preserveAspectRatio="xMidYMid meet" version="1.2"><defs><clipPath id="0f4127e32c"><path d="M 24 113 L 35 113 L 35 127.699219 L 24 127.699219 Z M 24 113 "/></clipPath><clipPath id="403b63c929"><path d="M 35 113 L 49 113 L 49 127.699219 L 35 127.699219 Z M 35 113 "/></clipPath><clipPath id="cef34042fd"><path d="M 49 113 L 61 113 L 61 127.699219 L 49 127.699219 Z M 49 113 "/></clipPath><clipPath id="b13f36ec0d"><path d="M 61 113 L 74 113 L 74 127.699219 L 61 127.699219 Z M 61 113 "/></clipPath><clipPath id="934145c170"><path d="M 74 113 L 90 113 L 90 127.699219 L 74 127.699219 Z M 74 113 "/></clipPath><clipPath id="d096211b6e"><path d="M 88 113 L 101 113 L 101 127.699219 L 88 127.699219 Z M 88 113 "/></clipPath><clipPath id="731c8886a3"><path d="M 105 113 L 119 113 L 119 127.699219 L 105 127.699219 Z M 105 113 "/></clipPath><clipPath id="89aa35cb28"><path d="M 119 113 L 132 113 L 132 127.699219 L 119 127.699219 Z M 119 113 "/></clipPath><clipPath id="8892734e09"><path d="M 132 113 L 138 113 L 138 127.699219 L 132 127.699219 Z M 132 113 "/></clipPath><clipPath id="00df41006e"><path d="M 139 113 L 153 113 L 153 127.699219 L 139 127.699219 Z M 139 113 "/></clipPath><clipPath id="4016593e9d"><path d="M 153 113 L 167 113 L 167 127.699219 L 153 127.699219 Z M 153 113 "/></clipPath><clipPath id="18f67589e0"><path d="M 15.183594 66 L 68 66 L 68 109 L 15.183594 109 Z M 15.183594 66 "/></clipPath><clipPath id="ea899a3106"><path d="M 15.183594 66 L 69 66 L 69 109 L 15.183594 109 Z M 15.183594 66 "/></clipPath><clipPath id="39104e4eec"><path d="M 105 59.019531 L 127 59.019531 L 127 107 L 105 107 Z M 105 59.019531 "/></clipPath><clipPath id="8c9c520ec2"><path d="M 150 74 L 171.945312 74 L 171.945312 105 L 150 105 Z M 150 74 "/></clipPath><clipPath id="e5f76854e4"><path d="M 149 73 L 171.945312 73 L 171.945312 106 L 149 106 Z M 149 73 "/></clipPath></defs><g id="4888fd38a3"><g clip-rule="nonzero" clip-path="url(#0f4127e32c)"><path style=" stroke:none;fill-rule:nonzero;fill:#060000;fill-opacity:1;" d="M 25.25 127.566406 L 25.25 118 L 24.203125 118 L 25.25 113.9375 L 30.734375 113.9375 L 30.734375 113.414062 L 34.652344 113.414062 L 33.738281 118 L 29.429688 118 L 29.429688 119.046875 L 34.523438 119.046875 L 33.738281 122.195312 L 29.429688 122.195312 L 29.429688 123.375 L 34.523438 123.375 L 33.476562 127.566406 Z M 25.25 127.566406 "/></g><g clip-rule="nonzero" clip-path="url(#403b63c929)"><path style=" stroke:none;fill-rule:nonzero;fill:#060000;fill-opacity:1;" d="M 44.84375 127.566406 L 40.664062 120.882812 L 40.664062 127.566406 L 36.484375 127.566406 L 36.484375 118 L 35.4375 118 L 36.484375 113.9375 L 40.925781 113.9375 L 44.320312 119.3125 L 44.320312 113.9375 L 48.5 113.9375 L 48.5 127.566406 Z M 44.84375 127.566406 "/></g><g clip-rule="nonzero" clip-path="url(#cef34042fd)"><path style=" stroke:none;fill-rule:nonzero;fill:#060000;fill-opacity:1;" d="M 50.980469 127.566406 L 50.980469 118 L 49.9375 118 L 50.980469 113.9375 L 56.46875 113.9375 L 56.46875 113.414062 L 60.386719 113.414062 L 59.472656 118 L 55.292969 118 L 55.292969 119.046875 L 60.386719 119.046875 L 59.601562 122.195312 L 55.292969 122.195312 L 55.292969 123.375 L 60.386719 123.375 L 59.339844 127.4375 Z M 50.980469 127.566406 "/></g><g clip-rule="nonzero" clip-path="url(#b13f36ec0d)"><path style=" stroke:none;fill-rule:nonzero;fill:#060000;fill-opacity:1;" d="M 68.617188 127.566406 L 66.65625 123.765625 L 66.527344 123.765625 L 66.527344 127.566406 L 62.214844 127.566406 L 62.214844 118 L 61.171875 118 L 62.214844 113.9375 L 66.917969 113.9375 C 68.515625 113.789062 69.996094 114.140625 71.359375 114.984375 C 72.023438 115.445312 72.539062 116.035156 72.910156 116.753906 C 73.28125 117.472656 73.460938 118.238281 73.449219 119.046875 C 73.464844 119.777344 73.335938 120.472656 73.058594 121.144531 C 72.613281 122.101562 71.917969 122.796875 70.964844 123.242188 L 73.710938 127.4375 Z M 67.570312 120.359375 C 68.617188 120.359375 69.136719 119.835938 69.136719 119.046875 C 69.136719 118.261719 68.484375 117.867188 67.441406 117.867188 L 66.394531 117.867188 L 66.394531 120.359375 Z M 67.570312 120.359375 "/></g><g clip-rule="nonzero" clip-path="url(#934145c170)"><path style=" stroke:none;fill-rule:nonzero;fill:#060000;fill-opacity:1;" d="M 88.339844 123.375 C 88.1875 123.785156 88 124.179688 87.777344 124.558594 C 87.554688 124.933594 87.300781 125.289062 87.011719 125.621094 C 86.726562 125.949219 86.410156 126.253906 86.066406 126.527344 C 85.726562 126.800781 85.363281 127.039062 84.976562 127.246094 C 84.589844 127.453125 84.1875 127.621094 83.773438 127.753906 C 83.355469 127.886719 82.929688 127.980469 82.496094 128.035156 C 82.0625 128.089844 81.625 128.105469 81.191406 128.078125 C 80.753906 128.054688 80.324219 127.992188 79.898438 127.886719 C 79.472656 127.78125 79.0625 127.640625 78.660156 127.460938 C 78.261719 127.28125 77.882812 127.070312 77.523438 126.820312 C 77.164062 126.570312 76.828125 126.292969 76.519531 125.980469 C 76.210938 125.671875 75.929688 125.335938 75.683594 124.972656 C 75.433594 124.613281 75.21875 124.230469 75.042969 123.832031 C 74.863281 123.429688 74.722656 123.015625 74.617188 122.589844 C 74.515625 122.164062 74.449219 121.734375 74.425781 121.292969 C 74.398438 120.855469 74.414062 120.417969 74.46875 119.984375 C 74.523438 119.546875 74.617188 119.121094 74.75 118.703125 C 74.882812 118.285156 75.050781 117.882812 75.257812 117.496094 C 75.460938 117.109375 75.699219 116.742188 75.972656 116.398438 C 76.246094 116.054688 76.546875 115.738281 76.875 115.449219 C 77.203125 115.164062 77.558594 114.90625 77.933594 114.683594 C 78.308594 114.457031 78.703125 114.269531 79.113281 114.121094 C 79.523438 113.96875 79.945312 113.855469 80.375 113.78125 C 80.804688 113.703125 81.242188 113.671875 81.675781 113.675781 L 83.636719 113.9375 L 84.027344 113.542969 L 87.292969 115.378906 L 84.027344 118.523438 L 83.507812 118.132812 C 82.96875 117.878906 82.402344 117.746094 81.808594 117.738281 C 81.421875 117.738281 81.046875 117.808594 80.6875 117.953125 C 80.328125 118.097656 80.007812 118.304688 79.730469 118.574219 C 79.449219 118.84375 79.230469 119.152344 79.070312 119.507812 C 78.910156 119.863281 78.820312 120.234375 78.804688 120.621094 C 78.804688 121.019531 78.878906 121.40625 79.03125 121.773438 C 79.183594 122.144531 79.402344 122.46875 79.683594 122.753906 C 79.964844 123.035156 80.289062 123.253906 80.660156 123.40625 C 81.027344 123.558594 81.410156 123.636719 81.808594 123.636719 C 82.273438 123.652344 82.714844 123.554688 83.132812 123.347656 C 83.550781 123.136719 83.894531 122.839844 84.160156 122.457031 L 81.546875 122.457031 L 82.460938 119.046875 L 88.992188 119.046875 C 89.078125 120.535156 88.859375 121.976562 88.339844 123.375 Z M 88.339844 123.375 "/></g><g clip-rule="nonzero" clip-path="url(#d096211b6e)"><path style=" stroke:none;fill-rule:nonzero;fill:#060000;fill-opacity:1;" d="M 92.257812 127.566406 L 92.257812 121.277344 L 88.078125 113.9375 L 92.910156 113.9375 L 94.347656 117.082031 L 95.785156 113.9375 L 100.617188 113.9375 L 96.570312 121.277344 L 96.570312 127.566406 Z M 92.257812 127.566406 "/></g><g clip-rule="nonzero" clip-path="url(#731c8886a3)"><path style=" stroke:none;fill-rule:nonzero;fill:#060000;fill-opacity:1;" d="M 107.019531 118 L 105.972656 118 L 107.019531 113.9375 L 109.761719 113.9375 C 111.425781 113.863281 113.039062 114.125 114.59375 114.722656 C 115.191406 114.949219 115.738281 115.261719 116.242188 115.65625 C 116.742188 116.050781 117.175781 116.511719 117.535156 117.039062 C 117.898438 117.566406 118.175781 118.132812 118.363281 118.746094 C 118.550781 119.355469 118.644531 119.980469 118.644531 120.621094 C 118.652344 121.753906 118.390625 122.824219 117.855469 123.824219 C 117.324219 124.824219 116.582031 125.632812 115.640625 126.257812 C 114.070312 127.304688 112.765625 127.566406 110.023438 127.566406 L 107.019531 127.566406 Z M 114.332031 120.753906 C 114.335938 120.554688 114.316406 120.359375 114.277344 120.164062 C 114.234375 119.96875 114.175781 119.78125 114.09375 119.601562 C 114.011719 119.417969 113.914062 119.25 113.796875 119.089844 C 113.679688 118.929688 113.546875 118.785156 113.394531 118.652344 C 113.246094 118.523438 113.085938 118.410156 112.914062 118.3125 C 112.738281 118.21875 112.558594 118.140625 112.367188 118.085938 C 112.179688 118.027344 111.984375 117.992188 111.789062 117.980469 C 111.589844 117.964844 111.394531 117.972656 111.199219 118 L 111.199219 123.503906 C 113.15625 123.375 114.332031 122.457031 114.332031 120.753906 Z M 114.332031 120.753906 "/></g><g clip-rule="nonzero" clip-path="url(#89aa35cb28)"><path style=" stroke:none;fill-rule:nonzero;fill:#060000;fill-opacity:1;" d="M 126.742188 127.566406 L 124.78125 123.765625 L 124.652344 123.765625 L 124.652344 127.566406 L 120.339844 127.566406 L 120.339844 118 L 119.296875 118 L 120.339844 113.9375 L 125.042969 113.9375 C 126.640625 113.789062 128.121094 114.140625 129.484375 114.984375 C 130.148438 115.445312 130.667969 116.035156 131.039062 116.753906 C 131.40625 117.472656 131.585938 118.238281 131.574219 119.046875 C 131.59375 119.777344 131.460938 120.472656 131.183594 121.144531 C 130.742188 122.101562 130.042969 122.796875 129.09375 123.242188 L 131.835938 127.4375 Z M 125.695312 120.359375 C 126.742188 120.359375 127.265625 119.835938 127.265625 119.046875 C 127.265625 118.261719 126.609375 117.867188 125.566406 117.867188 L 124.519531 117.867188 L 124.519531 120.359375 Z M 125.695312 120.359375 "/></g><g clip-rule="nonzero" clip-path="url(#8892734e09)"><path style=" stroke:none;fill-rule:nonzero;fill:#060000;fill-opacity:1;" d="M 133.402344 127.566406 L 133.402344 118 L 132.359375 118 L 133.402344 113.9375 L 137.714844 113.9375 L 137.714844 127.566406 Z M 133.402344 127.566406 "/></g><g clip-rule="nonzero" clip-path="url(#00df41006e)"><path style=" stroke:none;fill-rule:nonzero;fill:#060000;fill-opacity:1;" d="M 148.425781 127.566406 L 144.246094 120.882812 L 144.246094 127.566406 L 140.066406 127.566406 L 140.066406 118 L 139.019531 118 L 140.066406 113.9375 L 144.507812 113.9375 L 147.902344 119.441406 L 147.902344 113.9375 L 152.082031 113.9375 L 152.082031 127.566406 Z M 148.425781 127.566406 "/></g><g clip-rule="nonzero" clip-path="url(#4016593e9d)"><path style=" stroke:none;fill-rule:nonzero;fill:#060000;fill-opacity:1;" d="M 161.878906 127.566406 L 158.875 122.195312 L 158.875 127.566406 L 154.5625 127.566406 L 154.5625 118 L 153.519531 118 L 154.5625 113.9375 L 158.875 113.9375 L 158.875 119.046875 L 161.488281 113.9375 L 166.320312 113.9375 L 162.53125 120.492188 L 166.710938 127.566406 Z M 161.878906 127.566406 "/></g><g clip-rule="nonzero" clip-path="url(#18f67589e0)"><path style=" stroke:none;fill-rule:nonzero;fill:#060000;fill-opacity:1;" d="M 43.40625 108.433594 C 42.042969 106.613281 40.476562 104.996094 38.703125 103.582031 C 39.050781 102.652344 39.183594 101.691406 39.09375 100.699219 C 39.09375 100.304688 39.09375 98.210938 39.09375 95.324219 C 38.964844 89.820312 38.964844 81.5625 38.964844 78.417969 C 38.996094 77.855469 38.863281 77.328125 38.574219 76.847656 C 38.382812 76.570312 38.121094 76.441406 37.789062 76.453125 C 36.542969 76.71875 35.457031 77.289062 34.523438 78.15625 C 34.523438 79.597656 34.523438 96.375 34.523438 98.472656 C 34.503906 99.132812 34.722656 99.699219 35.175781 100.175781 C 35.609375 100.609375 36.132812 100.828125 36.742188 100.832031 C 37.304688 100.851562 37.828125 100.722656 38.3125 100.4375 L 38.832031 100.042969 L 38.574219 100.699219 C 37.660156 102.925781 32.042969 107.515625 28.382812 108.039062 L 27.992188 108.039062 C 26.949219 104.761719 24.597656 101.75 22.898438 101.09375 L 22.765625 101.09375 L 22.765625 100.699219 C 22.976562 99.972656 23.066406 99.230469 23.027344 98.472656 C 23.027344 97.292969 23.027344 93.621094 23.027344 89.691406 C 23.027344 85.757812 23.027344 81.171875 23.027344 79.597656 C 23.027344 78.027344 21.199219 75.796875 19.632812 74.488281 L 17.804688 72.652344 L 16.367188 71.601562 L 15.84375 71.078125 L 16.496094 71.078125 L 18.847656 71.339844 C 22.113281 71.339844 24.464844 69.769531 25.117188 67.015625 L 25.378906 67.015625 C 31.519531 67.015625 34.261719 71.210938 34.523438 75.140625 C 36.097656 74.410156 37.492188 73.425781 38.707031 72.183594 C 39.921875 70.941406 40.878906 69.527344 41.578125 67.933594 L 41.839844 67.933594 C 46.410156 68.589844 48.109375 72.257812 48.109375 75.535156 L 48.628906 75.273438 C 50.851562 74.488281 55.945312 72.519531 58.164062 67.015625 L 58.164062 66.621094 L 58.296875 66.621094 C 62.476562 68.980469 63.261719 72.128906 63.261719 77.894531 C 63.261719 79.074219 63.261719 86.9375 63.261719 92.574219 L 63.261719 97.816406 C 63.207031 98.601562 63.421875 99.300781 63.914062 99.914062 C 64.359375 100.3125 64.882812 100.488281 65.480469 100.4375 L 67.308594 100.042969 L 67.703125 100.042969 L 67.703125 100.4375 C 66.917969 102.796875 60.515625 107.382812 57.25 107.382812 L 56.859375 107.382812 C 55.554688 103.714844 54.507812 101.617188 52.15625 100.4375 L 52.027344 100.4375 C 52.328125 99.589844 52.460938 98.714844 52.417969 97.816406 C 52.417969 92.441406 52.417969 81.5625 52.417969 78.679688 C 52.5 78.0625 52.371094 77.496094 52.027344 76.976562 L 51.503906 76.714844 C 50.597656 76.875 49.769531 77.222656 49.023438 77.761719 L 48.371094 78.15625 C 48.371094 79.203125 48.371094 82.613281 48.238281 86.542969 C 48.109375 90.476562 47.847656 98.339844 47.847656 100.175781 C 47.734375 101.273438 47.910156 102.320312 48.371094 103.320312 C 46.664062 104.714844 45.140625 106.289062 43.796875 108.039062 Z M 43.40625 108.433594 "/></g><g clip-rule="nonzero" clip-path="url(#ea899a3106)"><path style=" stroke:none;fill-rule:nonzero;fill:#060000;fill-opacity:1;" d="M 58.296875 66.886719 C 62.347656 69.242188 63.128906 72.128906 63.128906 78.027344 C 63.128906 79.597656 63.128906 93.359375 63.128906 97.945312 C 63.128906 100.175781 64.175781 100.832031 65.480469 100.832031 L 67.441406 100.4375 C 66.785156 102.664062 60.386719 107.253906 57.121094 107.253906 L 56.992188 107.253906 C 55.683594 103.714844 54.640625 101.484375 52.15625 100.304688 C 52.476562 99.414062 52.605469 98.5 52.550781 97.554688 C 52.550781 92.179688 52.550781 81.300781 52.550781 78.417969 C 52.550781 75.535156 52.027344 76.320312 51.375 76.320312 C 50.136719 76.617188 49.003906 77.144531 47.976562 77.894531 C 47.976562 79.859375 47.714844 96.898438 47.714844 100.304688 C 47.714844 103.714844 48.238281 103.582031 48.238281 103.582031 C 46.480469 105.011719 44.910156 106.628906 43.535156 108.433594 C 42.175781 106.613281 40.609375 104.996094 38.832031 103.582031 C 38.832031 103.582031 39.226562 103.058594 39.226562 100.570312 C 39.226562 98.078125 38.964844 83.007812 38.964844 78.289062 C 38.964844 76.714844 38.441406 76.191406 37.660156 76.191406 C 36.875 76.191406 34.132812 78.027344 34.132812 78.027344 C 34.132812 78.027344 34.132812 96.242188 34.132812 98.472656 C 34.113281 98.796875 34.160156 99.109375 34.273438 99.414062 C 34.382812 99.71875 34.550781 99.988281 34.773438 100.226562 C 34.996094 100.460938 35.253906 100.640625 35.550781 100.769531 C 35.847656 100.898438 36.160156 100.960938 36.484375 100.960938 C 37.101562 100.953125 37.667969 100.78125 38.179688 100.4375 C 37.398438 102.402344 31.78125 107.121094 28.121094 107.644531 C 26.949219 104.238281 24.597656 101.222656 22.898438 100.570312 C 23.195312 99.675781 23.328125 98.757812 23.289062 97.816406 C 23.289062 95.324219 23.289062 81.957031 23.289062 79.074219 C 23.289062 78.550781 23.289062 76.714844 19.761719 73.832031 L 16.496094 71.472656 L 18.847656 71.734375 C 22.636719 71.734375 24.726562 69.636719 25.25 67.148438 C 31.78125 67.148438 34.132812 71.867188 34.132812 75.402344 C 35.796875 74.671875 37.269531 73.660156 38.554688 72.371094 C 39.839844 71.082031 40.847656 69.601562 41.578125 67.933594 C 46.410156 68.589844 47.714844 72.78125 47.714844 75.667969 C 49.285156 75.011719 55.554688 73.4375 58.164062 67.015625 M 57.90625 66.359375 L 57.90625 66.753906 C 55.683594 72.257812 50.851562 74.09375 48.5 74.878906 L 48.238281 74.878906 C 48.109375 71.601562 46.28125 67.933594 41.707031 67.410156 L 41.316406 67.410156 L 41.316406 67.671875 C 40.65625 69.207031 39.753906 70.585938 38.609375 71.804688 C 37.464844 73.019531 36.144531 74 34.652344 74.75 C 34.519531 72.8125 33.824219 71.109375 32.5625 69.636719 C 31.632812 68.65625 30.539062 67.910156 29.285156 67.40625 C 28.03125 66.90625 26.730469 66.6875 25.378906 66.753906 L 24.988281 66.753906 L 24.988281 67.015625 C 24.335938 69.769531 22.113281 71.339844 18.847656 71.339844 L 16.628906 71.078125 L 15.191406 70.816406 L 16.238281 71.734375 L 17.804688 72.78125 L 19.632812 74.09375 C 21.199219 75.402344 23.027344 77.238281 23.027344 78.941406 C 23.027344 80.648438 23.027344 84.839844 23.027344 89.035156 C 23.027344 93.230469 23.027344 96.503906 23.027344 97.816406 C 23.066406 98.574219 22.980469 99.316406 22.765625 100.042969 L 22.765625 100.832031 L 23.160156 100.832031 C 24.859375 101.484375 27.078125 104.371094 28.121094 107.644531 L 28.121094 108.039062 L 28.253906 108.039062 C 31.910156 107.515625 37.660156 102.796875 38.574219 100.570312 L 38.574219 100.4375 C 38.636719 101.382812 38.503906 102.300781 38.179688 103.191406 L 37.917969 103.582031 L 38.3125 103.84375 C 40.078125 105.21875 41.644531 106.789062 43.015625 108.5625 L 43.40625 108.957031 L 43.796875 108.5625 C 45.136719 106.8125 46.660156 105.238281 48.371094 103.84375 L 48.761719 103.582031 L 48.5 103.191406 C 48.121094 102.21875 47.988281 101.210938 48.109375 100.175781 C 48.109375 98.210938 48.238281 91.917969 48.238281 86.28125 C 48.238281 80.648438 48.371094 79.203125 48.371094 78.027344 L 49.023438 77.632812 C 49.730469 77.109375 50.511719 76.761719 51.375 76.582031 L 51.765625 76.582031 C 51.894531 76.714844 52.15625 77.109375 52.15625 78.15625 C 52.15625 79.203125 52.15625 91.917969 52.15625 97.292969 C 52.246094 98.183594 52.15625 99.058594 51.894531 99.914062 L 51.894531 100.304688 L 52.289062 100.304688 C 54.507812 101.484375 55.554688 103.453125 56.859375 107.121094 L 56.859375 107.382812 L 57.382812 107.382812 C 60.777344 107.382812 67.308594 102.664062 68.09375 100.304688 L 68.355469 99.519531 L 67.570312 99.78125 L 65.871094 100.175781 C 65.363281 100.183594 64.929688 100.007812 64.566406 99.652344 C 64.082031 99.085938 63.867188 98.429688 63.914062 97.683594 L 63.914062 92.574219 C 63.914062 86.675781 63.914062 79.203125 63.914062 78.027344 C 63.914062 72.128906 63.128906 68.980469 58.820312 66.492188 L 58.425781 66.230469 Z M 34.523438 78.15625 C 35.382812 77.355469 36.382812 76.832031 37.527344 76.582031 L 38.179688 76.847656 C 38.414062 77.300781 38.503906 77.78125 38.441406 78.289062 C 38.441406 81.300781 38.574219 89.691406 38.574219 95.195312 L 38.574219 99.652344 L 37.789062 100.175781 C 37.347656 100.441406 36.867188 100.574219 36.351562 100.570312 C 35.800781 100.597656 35.320312 100.421875 34.914062 100.042969 C 34.515625 99.59375 34.34375 99.070312 34.394531 98.472656 C 34.394531 96.375 34.394531 80.121094 34.394531 78.15625 Z M 34.523438 78.15625 "/></g><path style=" stroke:none;fill-rule:nonzero;fill:#060000;fill-opacity:1;" d="M 75.148438 104.5 C 73.1875 99.390625 67.046875 98.601562 66.917969 98.601562 L 66.65625 98.601562 L 66.65625 98.339844 C 66.851562 97.699219 66.9375 97.042969 66.917969 96.375 C 66.917969 94.933594 67.046875 83.269531 67.046875 78.550781 L 67.570312 78.550781 C 70.445312 78.289062 79.195312 77.371094 81.9375 74.222656 L 82.199219 74.222656 C 86.25 76.847656 88.078125 80.648438 88.078125 85.890625 C 88.078125 86.28125 88.078125 86.675781 88.078125 87.199219 C 88.078125 91.132812 88.078125 96.503906 86.25 98.863281 C 84.421875 101.222656 78.414062 104.632812 75.277344 105.023438 L 75.015625 105.023438 Z M 75.539062 79.335938 C 75.539062 81.300781 75.539062 92.835938 75.539062 94.410156 C 75.539062 95.980469 78.804688 97.945312 79.585938 98.078125 C 80.371094 98.210938 79.71875 86.675781 79.71875 84.316406 C 79.71875 81.957031 76.453125 79.859375 75.539062 79.46875 Z M 75.539062 79.335938 "/><path style=" stroke:none;fill-rule:nonzero;fill:#060000;fill-opacity:1;" d="M 82.199219 74.09375 C 83.144531 74.699219 83.988281 75.417969 84.738281 76.253906 C 85.492188 77.085938 86.117188 78.003906 86.625 79.007812 C 87.128906 80.011719 87.492188 81.0625 87.71875 82.164062 C 87.941406 83.265625 88.019531 84.375 87.949219 85.496094 C 87.949219 89.429688 88.078125 95.71875 86.117188 98.339844 C 84.160156 100.960938 78.28125 103.976562 75.277344 104.371094 C 73.316406 99.125 66.917969 98.339844 66.917969 98.339844 C 67.109375 97.699219 67.199219 97.042969 67.179688 96.375 C 67.179688 94.933594 67.308594 83.007812 67.308594 78.550781 C 70.050781 78.289062 79.195312 77.5 82.199219 74.09375 M 79.847656 98.339844 C 79.847656 98.339844 79.980469 86.9375 79.980469 84.316406 C 79.980469 81.695312 75.277344 79.074219 75.277344 79.074219 C 75.277344 79.074219 75.277344 92.703125 75.277344 94.410156 C 75.277344 96.113281 79.847656 98.339844 79.847656 98.339844 M 82.199219 73.4375 L 81.9375 73.699219 C 79.195312 76.847656 70.445312 77.632812 67.703125 78.027344 L 67.046875 78.027344 L 67.046875 78.417969 C 67.046875 83.136719 66.917969 94.800781 66.917969 96.242188 C 66.925781 96.867188 66.839844 97.480469 66.65625 98.078125 L 66.65625 98.601562 L 67.179688 98.601562 C 67.179688 98.601562 73.316406 99.390625 75.148438 104.371094 L 75.148438 104.894531 L 75.539062 104.894531 C 78.671875 104.5 85.074219 100.699219 86.640625 98.734375 C 88.207031 96.769531 88.46875 90.871094 88.46875 86.9375 C 88.46875 86.542969 88.46875 86.019531 88.46875 85.628906 C 88.46875 80.382812 86.511719 76.453125 82.460938 73.832031 L 82.199219 73.570312 Z M 79.328125 97.945312 C 78.28125 97.816406 75.667969 97.03125 75.667969 94.539062 C 75.667969 92.050781 75.667969 82.480469 75.667969 79.859375 C 76.84375 80.382812 79.457031 81.828125 79.457031 84.449219 C 79.457031 87.070312 79.328125 95.851562 79.328125 97.945312 Z M 79.71875 97.945312 Z M 79.71875 97.945312 "/><g clip-rule="nonzero" clip-path="url(#39104e4eec)"><path style=" stroke:none;fill-rule:nonzero;fill:#060000;fill-opacity:1;" d="M 115.246094 106.074219 L 112.375 106.074219 L 113.027344 105.8125 L 114.464844 105.023438 C 117.335938 103.058594 118.382812 100.570312 118.382812 99.390625 C 118.382812 98.210938 118.382812 97.292969 118.382812 95.851562 C 118.382812 94.410156 118.382812 90.871094 118.382812 86.675781 C 118.382812 82.480469 116.683594 81.828125 115.117188 81.828125 L 114.203125 81.828125 C 114.203125 82.875 114.203125 89.296875 114.203125 93.882812 C 114.203125 98.472656 117.207031 97.683594 117.207031 97.683594 L 117.597656 97.683594 L 117.597656 97.945312 C 117.46875 98.078125 114.726562 102.664062 110.9375 103.714844 L 110.546875 103.714844 C 109.050781 102.164062 107.394531 100.808594 105.582031 99.652344 C 105.828125 99.109375 105.917969 98.539062 105.84375 97.945312 L 105.84375 97.03125 C 105.84375 96.113281 105.84375 91.132812 105.972656 86.414062 C 106.105469 81.695312 106.105469 79.597656 106.105469 77.632812 C 106.105469 71.867188 109.628906 63.738281 119.035156 59.9375 L 119.949219 59.546875 L 119.296875 60.199219 C 114.855469 65.050781 114.332031 71.867188 114.332031 74.488281 C 114.332031 77.109375 114.332031 78.8125 114.332031 79.597656 C 115.996094 79.265625 117.523438 78.609375 118.910156 77.628906 C 120.300781 76.644531 121.429688 75.425781 122.300781 73.960938 L 122.5625 73.960938 C 125.695312 74.878906 126.742188 78.289062 126.742188 80.253906 C 126.742188 82.21875 126.742188 81.5625 126.742188 82.480469 C 126.742188 83.398438 126.609375 87.722656 126.609375 93.097656 C 126.609375 98.472656 124.914062 102.796875 121.515625 104.761719 C 119.539062 105.734375 117.449219 106.171875 115.246094 106.074219 Z M 115.246094 106.074219 "/><path style=" stroke:none;fill-rule:nonzero;fill:#060000;fill-opacity:1;" d="M 119.035156 60.199219 C 114.59375 65.179688 114.070312 71.996094 114.070312 74.617188 C 114.070312 77.238281 114.070312 79.992188 114.070312 79.992188 C 114.953125 79.84375 115.804688 79.601562 116.632812 79.261719 C 117.457031 78.925781 118.238281 78.503906 118.972656 77.992188 C 119.707031 77.484375 120.375 76.898438 120.980469 76.242188 C 121.585938 75.582031 122.113281 74.867188 122.5625 74.09375 C 125.4375 75.011719 126.609375 78.15625 126.609375 80.253906 C 126.609375 82.351562 126.351562 85.496094 126.351562 93.097656 C 126.351562 97.160156 125.566406 102.140625 121.386719 104.5 C 119.460938 105.503906 117.414062 105.984375 115.246094 105.941406 L 113.15625 105.941406 L 114.726562 105.15625 C 117.730469 103.058594 118.773438 100.570312 118.773438 99.390625 C 118.773438 98.210938 118.773438 93.492188 118.773438 86.675781 C 118.773438 82.351562 116.683594 81.695312 115.378906 81.695312 L 114.332031 81.695312 C 114.332031 81.695312 114.332031 88.902344 114.332031 93.882812 C 114.332031 98.863281 117.46875 97.816406 117.597656 97.816406 C 117.597656 97.816406 114.726562 102.535156 111.066406 103.453125 C 109.582031 101.855469 107.925781 100.457031 106.105469 99.257812 C 106.402344 98.539062 106.492188 97.796875 106.363281 97.03125 C 106.363281 95.324219 106.496094 82.351562 106.496094 77.761719 C 106.496094 73.175781 109.109375 64.261719 119.035156 60.199219 M 120.601562 59.019531 L 118.90625 59.808594 C 109.371094 63.738281 105.84375 71.996094 105.84375 77.761719 C 105.84375 79.730469 105.84375 83.136719 105.710938 86.542969 C 105.582031 89.953125 105.582031 96.113281 105.582031 97.160156 L 105.582031 97.554688 C 105.632812 98.101562 105.542969 98.625 105.320312 99.125 L 105.058594 99.519531 L 105.449219 99.78125 C 107.265625 100.9375 108.921875 102.292969 110.414062 103.84375 L 110.804688 103.84375 C 114.726562 102.796875 117.46875 98.210938 117.597656 97.945312 L 117.992188 97.292969 L 117.207031 97.292969 C 116.945312 97.292969 114.332031 97.160156 114.332031 93.753906 C 114.332031 90.34375 114.332031 83.269531 114.332031 81.828125 L 114.984375 81.828125 C 116.945312 81.828125 117.992188 83.398438 117.992188 86.414062 C 117.992188 89.429688 117.992188 93.359375 117.992188 95.589844 C 117.992188 97.816406 117.992188 98.078125 117.992188 99.125 C 117.992188 100.175781 117.335938 102.535156 114.203125 104.632812 L 112.765625 105.417969 L 111.460938 105.941406 L 112.894531 106.203125 L 115.117188 106.203125 C 117.324219 106.246094 119.414062 105.765625 121.386719 104.761719 C 124.914062 102.796875 126.613281 98.863281 126.613281 92.964844 C 126.613281 87.070312 126.742188 84.449219 126.742188 82.351562 C 126.742188 80.253906 126.742188 80.777344 126.742188 80.121094 C 126.742188 79.46875 125.566406 74.617188 122.429688 73.570312 L 122.300781 73.570312 L 122.300781 73.832031 C 121.457031 75.289062 120.351562 76.511719 118.984375 77.492188 C 117.617188 78.476562 116.109375 79.132812 114.464844 79.46875 C 114.464844 78.550781 114.464844 76.582031 114.464844 74.617188 C 114.464844 72.652344 114.984375 65.179688 119.425781 60.460938 L 120.734375 59.019531 Z M 120.601562 59.019531 "/></g><path style=" stroke:none;fill-rule:nonzero;fill:#060000;fill-opacity:1;" d="M 139.804688 104.5 C 137.84375 100.960938 131.964844 97.03125 129.746094 96.769531 L 129.484375 96.769531 L 129.484375 96.503906 C 129.613281 95.898438 129.660156 95.289062 129.617188 94.671875 C 129.617188 94.539062 129.484375 86.28125 129.484375 85.496094 C 129.664062 83.183594 130.359375 81.042969 131.574219 79.074219 C 133.140625 76.976562 137.191406 75.011719 142.285156 73.699219 L 142.417969 73.699219 C 144.585938 75.019531 146.324219 76.769531 147.640625 78.941406 C 148.722656 80.761719 149.199219 82.726562 149.078125 84.839844 C 149.078125 84.839844 149.078125 87.332031 149.078125 87.59375 L 148.949219 87.59375 L 144.898438 89.558594 C 142.285156 90.871094 139.804688 92.050781 138.105469 92.964844 C 138.085938 93.59375 138.261719 94.164062 138.628906 94.671875 C 139.066406 95.335938 139.628906 95.863281 140.320312 96.257812 C 141.011719 96.648438 141.753906 96.863281 142.546875 96.898438 C 143.761719 96.785156 144.890625 96.417969 145.941406 95.800781 C 146.992188 95.179688 147.863281 94.367188 148.554688 93.359375 L 148.949219 92.835938 L 148.949219 93.492188 C 148.675781 95.832031 147.761719 97.886719 146.203125 99.652344 C 144.59375 101.894531 142.503906 103.507812 139.933594 104.5 L 139.671875 104.5 Z M 138.105469 90.34375 L 142.9375 87.722656 C 142.9375 87.199219 142.9375 85.363281 142.9375 85.234375 C 142.808594 80.253906 139.28125 77.761719 137.84375 77.5 Z M 138.105469 90.34375 "/><path style=" stroke:none;fill-rule:nonzero;fill:#060000;fill-opacity:1;" d="M 142.675781 73.832031 C 144.800781 75.164062 146.5 76.910156 147.773438 79.074219 C 148.867188 80.886719 149.347656 82.855469 149.207031 84.972656 C 149.207031 85.101562 149.207031 87.460938 149.207031 87.722656 C 145.027344 89.691406 140.71875 91.65625 138.238281 93.097656 C 138.175781 93.816406 138.351562 94.472656 138.757812 95.0625 C 139.238281 95.75 139.847656 96.289062 140.582031 96.679688 C 141.320312 97.074219 142.105469 97.277344 142.9375 97.292969 C 144.179688 97.164062 145.339844 96.777344 146.410156 96.136719 C 147.484375 95.496094 148.375 94.65625 149.078125 93.621094 C 149.078125 96.769531 144.769531 103.058594 140.066406 104.371094 C 138.105469 100.699219 132.097656 96.769531 129.746094 96.503906 C 129.917969 95.90625 130.003906 95.292969 130.007812 94.671875 C 130.007812 94.671875 129.875 86.28125 129.875 85.628906 C 130.070312 83.363281 130.765625 81.265625 131.964844 79.335938 C 133.664062 77.109375 138.238281 75.140625 142.675781 73.960938 M 137.84375 90.738281 L 143.199219 87.855469 C 143.199219 87.722656 143.199219 85.363281 143.199219 85.234375 C 143.070312 79.859375 139.152344 77.371094 137.714844 77.371094 L 137.976562 90.738281 M 142.675781 73.4375 L 142.546875 73.4375 C 137.320312 74.75 133.273438 76.847656 131.707031 78.941406 C 130.425781 80.945312 129.6875 83.128906 129.484375 85.496094 C 129.484375 86.152344 129.617188 94.277344 129.617188 94.671875 C 129.648438 95.246094 129.605469 95.8125 129.484375 96.375 L 129.484375 96.898438 L 130.007812 96.898438 C 132.097656 97.160156 137.976562 100.832031 139.933594 104.632812 L 139.933594 104.894531 L 140.328125 104.894531 C 145.027344 103.453125 149.601562 97.160156 149.601562 93.753906 L 149.601562 92.574219 L 148.816406 93.492188 C 148.152344 94.453125 147.320312 95.234375 146.316406 95.828125 C 145.3125 96.421875 144.230469 96.78125 143.070312 96.898438 C 142.308594 96.867188 141.59375 96.667969 140.929688 96.300781 C 140.261719 95.929688 139.714844 95.429688 139.28125 94.800781 C 139 94.363281 138.871094 93.882812 138.890625 93.359375 C 140.585938 92.441406 142.9375 91.261719 145.550781 89.953125 L 149.601562 87.984375 L 149.863281 87.984375 L 149.863281 87.722656 C 149.863281 87.460938 149.863281 84.972656 149.863281 84.972656 C 149.960938 82.800781 149.441406 80.789062 148.292969 78.941406 C 146.992188 76.722656 145.25 74.929688 143.070312 73.570312 Z M 138.238281 90.082031 L 138.238281 77.894531 C 138.925781 78.21875 139.554688 78.632812 140.121094 79.144531 C 140.6875 79.652344 141.171875 80.234375 141.566406 80.890625 C 141.960938 81.542969 142.253906 82.238281 142.441406 82.980469 C 142.632812 83.71875 142.710938 84.46875 142.675781 85.234375 C 142.675781 85.363281 142.675781 86.9375 142.675781 87.59375 L 138.238281 89.953125 Z M 138.238281 90.082031 "/><g clip-rule="nonzero" clip-path="url(#8c9c520ec2)"><path style=" stroke:none;fill-rule:nonzero;fill:#060000;fill-opacity:1;" d="M 158.875 104.5 C 157.828125 101.878906 152.996094 98.601562 152.867188 98.601562 L 152.734375 98.601562 C 152.910156 97.957031 152.996094 97.304688 152.996094 96.636719 C 152.996094 96.113281 152.996094 94.410156 152.867188 92.3125 C 152.734375 90.214844 152.605469 85.496094 152.605469 83.921875 C 152.605469 82.351562 152.214844 80.515625 150.777344 80.253906 L 150.125 80.253906 L 150.644531 79.992188 C 153.003906 78.601562 154.875 76.722656 156.261719 74.355469 L 156.523438 74.355469 C 157.164062 74.566406 157.757812 74.867188 158.308594 75.261719 C 158.855469 75.652344 159.335938 76.121094 159.742188 76.65625 C 160.152344 77.195312 160.46875 77.78125 160.699219 78.417969 C 160.929688 79.054688 161.0625 79.710938 161.09375 80.382812 C 162.503906 79.835938 163.773438 79.050781 164.898438 78.035156 C 166.023438 77.019531 166.933594 75.835938 167.625 74.488281 L 167.625 74.222656 L 167.886719 74.222656 C 168.847656 74.984375 169.632812 75.898438 170.242188 76.964844 C 170.851562 78.027344 171.242188 79.167969 171.414062 80.382812 C 171.445312 81.625 171.222656 82.8125 170.746094 83.957031 C 170.265625 85.097656 169.574219 86.09375 168.671875 86.9375 L 168.410156 87.199219 L 168.410156 86.542969 C 167.625 84.054688 166.710938 81.433594 163.707031 81.433594 L 161.488281 81.828125 C 161.617188 83.398438 161.878906 92.3125 161.878906 96.503906 C 161.878906 98.210938 163.054688 98.472656 164.097656 98.472656 C 164.832031 98.445312 165.53125 98.269531 166.191406 97.945312 L 166.710938 97.683594 L 166.449219 98.210938 C 165.929688 99.519531 161.75 104.105469 159.003906 104.371094 L 158.875 104.371094 Z M 158.875 104.5 "/></g><g clip-rule="nonzero" clip-path="url(#e5f76854e4)"><path style=" stroke:none;fill-rule:nonzero;fill:#060000;fill-opacity:1;" d="M 156.652344 74.09375 C 157.304688 74.304688 157.902344 74.609375 158.453125 75.011719 C 159.007812 75.410156 159.480469 75.890625 159.878906 76.441406 C 160.28125 76.996094 160.582031 77.601562 160.792969 78.25 C 161 78.902344 161.101562 79.570312 161.09375 80.253906 C 162.589844 79.730469 163.9375 78.945312 165.132812 77.902344 C 166.328125 76.863281 167.289062 75.636719 168.019531 74.222656 C 169.0625 75.140625 174.808594 80.253906 168.800781 86.675781 C 168.019531 84.183594 167.105469 81.433594 163.839844 81.433594 L 161.488281 81.828125 L 161.355469 81.828125 C 161.488281 83.007812 161.75 92.3125 161.75 96.636719 C 161.726562 96.949219 161.773438 97.253906 161.886719 97.546875 C 162 97.839844 162.171875 98.09375 162.398438 98.308594 C 162.625 98.523438 162.890625 98.683594 163.1875 98.777344 C 163.484375 98.875 163.789062 98.90625 164.097656 98.863281 C 164.878906 98.851562 165.617188 98.675781 166.320312 98.339844 C 165.796875 99.78125 161.617188 104.105469 159.003906 104.371094 C 157.828125 101.617188 152.996094 98.339844 152.996094 98.339844 C 153.167969 97.695312 153.257812 97.042969 153.257812 96.375 C 153.257812 94.933594 152.867188 86.28125 152.996094 83.792969 C 153.128906 81.300781 152.605469 80.121094 150.90625 79.859375 C 153.308594 78.484375 155.226562 76.605469 156.652344 74.222656 M 167.886719 73.570312 L 167.625 74.09375 C 166.964844 75.367188 166.109375 76.488281 165.050781 77.457031 C 163.996094 78.425781 162.808594 79.183594 161.488281 79.730469 C 161.421875 79.0625 161.261719 78.417969 161.007812 77.796875 C 160.757812 77.179688 160.421875 76.605469 160.003906 76.082031 C 159.585938 75.558594 159.105469 75.105469 158.558594 74.722656 C 158.007812 74.339844 157.417969 74.042969 156.785156 73.832031 L 156.394531 73.832031 L 156.394531 74.09375 C 154.996094 76.417969 153.125 78.253906 150.777344 79.597656 L 149.730469 80.253906 L 150.90625 80.515625 C 152.082031 80.648438 152.605469 81.300781 152.605469 84.054688 C 152.605469 86.808594 152.734375 89.429688 152.867188 92.441406 C 152.996094 95.457031 152.996094 96.113281 152.996094 96.769531 C 152.988281 97.390625 152.898438 98.003906 152.734375 98.601562 L 152.734375 98.863281 L 152.996094 98.863281 C 152.996094 98.863281 157.828125 102.140625 158.875 104.761719 L 158.875 105.023438 L 159.136719 105.023438 C 162.007812 104.761719 166.191406 100.042969 166.84375 98.734375 L 167.234375 97.683594 L 166.191406 98.210938 C 165.53125 98.539062 164.835938 98.714844 164.097656 98.734375 C 162.792969 98.734375 162.140625 98.078125 162.140625 96.898438 C 162.140625 92.835938 161.878906 84.316406 161.75 82.351562 L 163.839844 82.089844 C 166.710938 82.089844 167.625 84.578125 168.410156 87.070312 L 168.671875 87.722656 L 169.195312 87.199219 C 170.109375 86.335938 170.804688 85.320312 171.28125 84.152344 C 171.761719 82.988281 171.980469 81.777344 171.9375 80.515625 C 171.765625 79.265625 171.363281 78.097656 170.726562 77.007812 C 170.09375 75.917969 169.277344 74.988281 168.28125 74.222656 L 167.886719 73.832031 Z M 167.886719 73.570312 "/></g><path style=" stroke:none;fill-rule:nonzero;fill:#060000;fill-opacity:1;" d="M 97.089844 104.371094 C 95.921875 101.941406 94.226562 99.976562 91.996094 98.472656 L 91.867188 98.472656 C 92.046875 97.738281 92.132812 96.996094 92.128906 96.242188 L 92.128906 95.0625 C 92.128906 92.3125 92.128906 85.101562 92.128906 81.5625 C 92.128906 81.347656 92.039062 81.171875 91.867188 81.039062 C 91.605469 80.777344 90.953125 80.382812 89.253906 80.382812 L 88.339844 80.382812 L 89.253906 79.992188 C 96.828125 76.320312 98.136719 69.242188 97.742188 67.148438 L 97.742188 66.492188 L 98.136719 66.492188 C 98.574219 66.703125 98.972656 66.972656 99.328125 67.300781 C 99.6875 67.628906 99.988281 68.003906 100.234375 68.425781 C 100.476562 68.847656 100.65625 69.296875 100.765625 69.769531 C 100.875 70.242188 100.914062 70.722656 100.878906 71.210938 C 100.878906 72.390625 100.878906 75.796875 100.878906 76.714844 L 105.449219 76.714844 L 100.878906 79.992188 C 100.878906 81.171875 100.878906 90.738281 100.878906 96.375 C 100.878906 97.683594 101.664062 98.472656 103.097656 98.472656 L 105.320312 98.078125 L 105.84375 98.078125 L 105.582031 98.601562 C 104.796875 100.175781 99.835938 104.632812 97.222656 104.632812 L 96.960938 104.632812 Z M 97.089844 104.371094 "/><path style=" stroke:none;fill-rule:nonzero;fill:#060000;fill-opacity:1;" d="M 98.003906 66.886719 C 98.433594 67.085938 98.820312 67.347656 99.164062 67.667969 C 99.511719 67.988281 99.800781 68.351562 100.035156 68.761719 C 100.269531 69.175781 100.4375 69.609375 100.535156 70.074219 C 100.636719 70.535156 100.664062 71 100.617188 71.472656 C 100.617188 72.78125 100.617188 77.109375 100.617188 77.109375 L 104.796875 77.109375 L 100.75 79.992188 C 100.75 79.992188 100.75 90.476562 100.75 96.503906 C 100.746094 96.824219 100.808594 97.132812 100.9375 97.421875 C 101.066406 97.714844 101.25 97.96875 101.488281 98.179688 C 101.726562 98.394531 101.996094 98.550781 102.300781 98.644531 C 102.605469 98.742188 102.914062 98.769531 103.230469 98.734375 C 103.992188 98.726562 104.734375 98.597656 105.449219 98.339844 C 104.667969 99.914062 99.703125 104.238281 97.351562 104.238281 C 96.140625 101.796875 94.398438 99.832031 92.128906 98.339844 C 92.316406 97.566406 92.40625 96.777344 92.386719 95.980469 C 92.386719 95.195312 92.386719 85.628906 92.386719 81.300781 C 92.386719 81.300781 92.519531 79.859375 89.382812 79.859375 C 97.222656 76.058594 98.398438 68.71875 98.003906 66.753906 M 97.484375 66.230469 L 97.484375 66.886719 C 97.875 68.980469 96.570312 75.929688 89.125 79.46875 L 87.425781 80.253906 L 89.382812 80.253906 C 90.953125 80.253906 91.605469 80.648438 91.867188 80.910156 C 91.964844 81.019531 92.007812 81.152344 91.996094 81.300781 C 91.996094 84.839844 91.996094 92.050781 91.996094 94.800781 C 91.996094 95.457031 91.996094 95.851562 91.996094 95.980469 C 92.003906 96.734375 91.917969 97.476562 91.734375 98.210938 L 91.734375 98.472656 L 91.996094 98.472656 C 94.210938 99.933594 95.910156 101.855469 97.089844 104.238281 L 97.089844 104.5 L 97.351562 104.5 C 99.964844 104.5 104.929688 99.914062 105.84375 98.339844 L 106.363281 97.421875 L 105.320312 97.816406 L 103.230469 98.210938 C 101.925781 98.210938 101.140625 97.554688 101.140625 96.375 C 101.140625 90.871094 101.140625 81.5625 101.140625 80.121094 L 104.929688 77.371094 L 105.972656 76.582031 L 101.007812 76.582031 C 101.007812 75.402344 101.007812 72.390625 101.007812 71.339844 C 101.054688 70.828125 101.023438 70.320312 100.914062 69.816406 C 100.804688 69.3125 100.621094 68.839844 100.363281 68.390625 C 100.105469 67.945312 99.785156 67.550781 99.40625 67.203125 C 99.027344 66.855469 98.601562 66.574219 98.136719 66.359375 Z M 97.484375 66.230469 "/></g></svg>